<?xml version="1.0" encoding="utf-8" standalone="no"?>
<!DOCTYPE svg PUBLIC "-//W3C//DTD SVG 1.1//EN"
  "http://www.w3.org/Graphics/SVG/1.1/DTD/svg11.dtd">
<!-- Created with matplotlib (https://matplotlib.org/) -->
<svg height="720pt" version="1.1" viewBox="0 0 720 720" width="720pt" xmlns="http://www.w3.org/2000/svg" xmlns:xlink="http://www.w3.org/1999/xlink">
 <defs>
  <style type="text/css">
*{stroke-linecap:butt;stroke-linejoin:round;}
  </style>
 </defs>
 <g id="figure_1">
  <g id="patch_1">
   <path d="M 0 720 
L 720 720 
L 720 0 
L 0 0 
z
" style="fill:#ffffff;"/>
  </g>
  <g id="axes_1">
   <g id="patch_2">
    <path d="M 33.64 692.12 
L 346.351944 692.12 
L 346.351944 14.76 
L 33.64 14.76 
z
" style="fill:#ffffff;"/>
   </g>
   <g id="patch_3">
    <path clip-path="url(#p2099452b27)" d="M 346.351944 661.330909 
L 80.164597 661.330909 
L 80.164597 653.911851 
L 346.351944 653.911851 
z
" style="fill:#800080;opacity:0.7;stroke:#ffffff;stroke-linejoin:miter;"/>
   </g>
   <g id="patch_4">
    <path clip-path="url(#p2099452b27)" d="M 346.351944 631.654677 
L 80.587788 631.654677 
L 80.587788 624.235619 
L 346.351944 624.235619 
z
" style="fill:#800080;opacity:0.7;stroke:#ffffff;stroke-linejoin:miter;"/>
   </g>
   <g id="patch_5">
    <path clip-path="url(#p2099452b27)" d="M 346.351944 601.978445 
L 96.880654 601.978445 
L 96.880654 594.559387 
L 346.351944 594.559387 
z
" style="fill:#800080;opacity:0.7;stroke:#ffffff;stroke-linejoin:miter;"/>
   </g>
   <g id="patch_6">
    <path clip-path="url(#p2099452b27)" d="M 346.351944 572.302212 
L 102.911131 572.302212 
L 102.911131 564.883154 
L 346.351944 564.883154 
z
" style="fill:#800080;opacity:0.7;stroke:#ffffff;stroke-linejoin:miter;"/>
   </g>
   <g id="patch_7">
    <path clip-path="url(#p2099452b27)" d="M 346.351944 542.62598 
L 110.740171 542.62598 
L 110.740171 535.206922 
L 346.351944 535.206922 
z
" style="fill:#800080;opacity:0.7;stroke:#ffffff;stroke-linejoin:miter;"/>
   </g>
   <g id="patch_8">
    <path clip-path="url(#p2099452b27)" d="M 346.351944 512.949748 
L 115.818466 512.949748 
L 115.818466 505.53069 
L 346.351944 505.53069 
z
" style="fill:#800080;opacity:0.7;stroke:#ffffff;stroke-linejoin:miter;"/>
   </g>
   <g id="patch_9">
    <path clip-path="url(#p2099452b27)" d="M 346.351944 483.273516 
L 118.251817 483.273516 
L 118.251817 475.854458 
L 346.351944 475.854458 
z
" style="fill:#800080;opacity:0.7;stroke:#ffffff;stroke-linejoin:miter;"/>
   </g>
   <g id="patch_10">
    <path clip-path="url(#p2099452b27)" d="M 346.351944 453.597284 
L 121.637347 453.597284 
L 121.637347 446.178226 
L 346.351944 446.178226 
z
" style="fill:#800080;opacity:0.7;stroke:#ffffff;stroke-linejoin:miter;"/>
   </g>
   <g id="patch_11">
    <path clip-path="url(#p2099452b27)" d="M 346.351944 423.921051 
L 118.463412 423.921051 
L 118.463412 416.501993 
L 346.351944 416.501993 
z
" style="fill:#800080;opacity:0.7;stroke:#ffffff;stroke-linejoin:miter;"/>
   </g>
   <g id="patch_12">
    <path clip-path="url(#p2099452b27)" d="M 346.351944 394.244819 
L 108.941607 394.244819 
L 108.941607 386.825761 
L 346.351944 386.825761 
z
" style="fill:#800080;opacity:0.7;stroke:#ffffff;stroke-linejoin:miter;"/>
   </g>
   <g id="patch_13">
    <path clip-path="url(#p2099452b27)" d="M 346.351944 364.568587 
L 103.44012 364.568587 
L 103.44012 357.149529 
L 346.351944 357.149529 
z
" style="fill:#800080;opacity:0.7;stroke:#ffffff;stroke-linejoin:miter;"/>
   </g>
   <g id="patch_14">
    <path clip-path="url(#p2099452b27)" d="M 346.351944 334.892355 
L 105.556077 334.892355 
L 105.556077 327.473297 
L 346.351944 327.473297 
z
" style="fill:#800080;opacity:0.7;stroke:#ffffff;stroke-linejoin:miter;"/>
   </g>
   <g id="patch_15">
    <path clip-path="url(#p2099452b27)" d="M 346.351944 305.216123 
L 109.470597 305.216123 
L 109.470597 297.797065 
L 346.351944 297.797065 
z
" style="fill:#800080;opacity:0.7;stroke:#ffffff;stroke-linejoin:miter;"/>
   </g>
   <g id="patch_16">
    <path clip-path="url(#p2099452b27)" d="M 346.351944 275.53989 
L 110.316979 275.53989 
L 110.316979 268.120832 
L 346.351944 268.120832 
z
" style="fill:#800080;opacity:0.7;stroke:#ffffff;stroke-linejoin:miter;"/>
   </g>
   <g id="patch_17">
    <path clip-path="url(#p2099452b27)" d="M 346.351944 245.863658 
L 111.798149 245.863658 
L 111.798149 238.4446 
L 346.351944 238.4446 
z
" style="fill:#800080;opacity:0.7;stroke:#ffffff;stroke-linejoin:miter;"/>
   </g>
   <g id="patch_18">
    <path clip-path="url(#p2099452b27)" d="M 346.351944 216.187426 
L 113.490914 216.187426 
L 113.490914 208.768368 
L 346.351944 208.768368 
z
" style="fill:#800080;opacity:0.7;stroke:#ffffff;stroke-linejoin:miter;"/>
   </g>
   <g id="patch_19">
    <path clip-path="url(#p2099452b27)" d="M 346.351944 186.511194 
L 109.893788 186.511194 
L 109.893788 179.092136 
L 346.351944 179.092136 
z
" style="fill:#800080;opacity:0.7;stroke:#ffffff;stroke-linejoin:miter;"/>
   </g>
   <g id="patch_20">
    <path clip-path="url(#p2099452b27)" d="M 346.351944 156.834962 
L 104.815492 156.834962 
L 104.815492 149.415904 
L 346.351944 149.415904 
z
" style="fill:#800080;opacity:0.7;stroke:#ffffff;stroke-linejoin:miter;"/>
   </g>
   <g id="patch_21">
    <path clip-path="url(#p2099452b27)" d="M 346.351944 127.158729 
L 101.00677 127.158729 
L 101.00677 119.739671 
L 346.351944 119.739671 
z
" style="fill:#800080;opacity:0.7;stroke:#ffffff;stroke-linejoin:miter;"/>
   </g>
   <g id="patch_22">
    <path clip-path="url(#p2099452b27)" d="M 346.351944 97.482497 
L 97.832835 97.482497 
L 97.832835 90.063439 
L 346.351944 90.063439 
z
" style="fill:#800080;opacity:0.7;stroke:#ffffff;stroke-linejoin:miter;"/>
   </g>
   <g id="patch_23">
    <path clip-path="url(#p2099452b27)" d="M 346.351944 67.806265 
L 95.117357 67.806265 
L 95.117357 60.387207 
L 346.351944 60.387207 
z
" style="fill:#800080;opacity:0.7;stroke:#ffffff;stroke-linejoin:miter;"/>
   </g>
   <g id="patch_24">
    <path clip-path="url(#p2099452b27)" d="M 346.351944 653.911851 
L 72.758749 653.911851 
L 72.758749 646.492793 
L 346.351944 646.492793 
z
" style="fill:#ff00ff;opacity:0.7;stroke:#ffffff;stroke-linejoin:miter;"/>
   </g>
   <g id="patch_25">
    <path clip-path="url(#p2099452b27)" d="M 346.351944 624.235619 
L 66.83407 624.235619 
L 66.83407 616.816561 
L 346.351944 616.816561 
z
" style="fill:#ff00ff;opacity:0.7;stroke:#ffffff;stroke-linejoin:miter;"/>
   </g>
   <g id="patch_26">
    <path clip-path="url(#p2099452b27)" d="M 346.351944 594.559387 
L 68.103644 594.559387 
L 68.103644 587.140329 
L 346.351944 587.140329 
z
" style="fill:#ff00ff;opacity:0.7;stroke:#ffffff;stroke-linejoin:miter;"/>
   </g>
   <g id="patch_27">
    <path clip-path="url(#p2099452b27)" d="M 346.351944 564.883154 
L 70.008005 564.883154 
L 70.008005 557.464096 
L 346.351944 557.464096 
z
" style="fill:#ff00ff;opacity:0.7;stroke:#ffffff;stroke-linejoin:miter;"/>
   </g>
   <g id="patch_28">
    <path clip-path="url(#p2099452b27)" d="M 346.351944 535.206922 
L 60.063009 535.206922 
L 60.063009 527.787864 
L 346.351944 527.787864 
z
" style="fill:#ff00ff;opacity:0.7;stroke:#ffffff;stroke-linejoin:miter;"/>
   </g>
   <g id="patch_29">
    <path clip-path="url(#p2099452b27)" d="M 346.351944 505.53069 
L 54.349926 505.53069 
L 54.349926 498.111632 
L 346.351944 498.111632 
z
" style="fill:#ff00ff;opacity:0.7;stroke:#ffffff;stroke-linejoin:miter;"/>
   </g>
   <g id="patch_30">
    <path clip-path="url(#p2099452b27)" d="M 346.351944 475.854458 
L 56.360085 475.854458 
L 56.360085 468.4354 
L 346.351944 468.4354 
z
" style="fill:#ff00ff;opacity:0.7;stroke:#ffffff;stroke-linejoin:miter;"/>
   </g>
   <g id="patch_31">
    <path clip-path="url(#p2099452b27)" d="M 346.351944 446.178226 
L 51.810778 446.178226 
L 51.810778 438.759168 
L 346.351944 438.759168 
z
" style="fill:#ff00ff;opacity:0.7;stroke:#ffffff;stroke-linejoin:miter;"/>
   </g>
   <g id="patch_32">
    <path clip-path="url(#p2099452b27)" d="M 346.351944 416.501993 
L 55.090511 416.501993 
L 55.090511 409.082935 
L 346.351944 409.082935 
z
" style="fill:#ff00ff;opacity:0.7;stroke:#ffffff;stroke-linejoin:miter;"/>
   </g>
   <g id="patch_33">
    <path clip-path="url(#p2099452b27)" d="M 346.351944 386.825761 
L 48.531045 386.825761 
L 48.531045 379.406703 
L 346.351944 379.406703 
z
" style="fill:#ff00ff;opacity:0.7;stroke:#ffffff;stroke-linejoin:miter;"/>
   </g>
   <g id="patch_34">
    <path clip-path="url(#p2099452b27)" d="M 346.351944 357.149529 
L 53.080352 357.149529 
L 53.080352 349.730471 
L 346.351944 349.730471 
z
" style="fill:#ff00ff;opacity:0.7;stroke:#ffffff;stroke-linejoin:miter;"/>
   </g>
   <g id="patch_35">
    <path clip-path="url(#p2099452b27)" d="M 346.351944 327.473297 
L 67.78625 327.473297 
L 67.78625 320.054239 
L 346.351944 320.054239 
z
" style="fill:#ff00ff;opacity:0.7;stroke:#ffffff;stroke-linejoin:miter;"/>
   </g>
   <g id="patch_36">
    <path clip-path="url(#p2099452b27)" d="M 346.351944 297.797065 
L 84.079117 297.797065 
L 84.079117 290.378007 
L 346.351944 290.378007 
z
" style="fill:#ff00ff;opacity:0.7;stroke:#ffffff;stroke-linejoin:miter;"/>
   </g>
   <g id="patch_37">
    <path clip-path="url(#p2099452b27)" d="M 346.351944 268.120832 
L 79.52981 268.120832 
L 79.52981 260.701774 
L 346.351944 260.701774 
z
" style="fill:#ff00ff;opacity:0.7;stroke:#ffffff;stroke-linejoin:miter;"/>
   </g>
   <g id="patch_38">
    <path clip-path="url(#p2099452b27)" d="M 346.351944 238.4446 
L 77.308055 238.4446 
L 77.308055 231.025542 
L 346.351944 231.025542 
z
" style="fill:#ff00ff;opacity:0.7;stroke:#ffffff;stroke-linejoin:miter;"/>
   </g>
   <g id="patch_39">
    <path clip-path="url(#p2099452b27)" d="M 346.351944 208.768368 
L 74.451514 208.768368 
L 74.451514 201.34931 
L 346.351944 201.34931 
z
" style="fill:#ff00ff;opacity:0.7;stroke:#ffffff;stroke-linejoin:miter;"/>
   </g>
   <g id="patch_40">
    <path clip-path="url(#p2099452b27)" d="M 346.351944 179.092136 
L 65.987687 179.092136 
L 65.987687 171.673078 
L 346.351944 171.673078 
z
" style="fill:#ff00ff;opacity:0.7;stroke:#ffffff;stroke-linejoin:miter;"/>
   </g>
   <g id="patch_41">
    <path clip-path="url(#p2099452b27)" d="M 346.351944 149.415904 
L 60.380402 149.415904 
L 60.380402 141.996846 
L 346.351944 141.996846 
z
" style="fill:#ff00ff;opacity:0.7;stroke:#ffffff;stroke-linejoin:miter;"/>
   </g>
   <g id="patch_42">
    <path clip-path="url(#p2099452b27)" d="M 346.351944 119.739671 
L 55.936893 119.739671 
L 55.936893 112.320613 
L 346.351944 112.320613 
z
" style="fill:#ff00ff;opacity:0.7;stroke:#ffffff;stroke-linejoin:miter;"/>
   </g>
   <g id="patch_43">
    <path clip-path="url(#p2099452b27)" d="M 346.351944 90.063439 
L 50.118012 90.063439 
L 50.118012 82.644381 
L 346.351944 82.644381 
z
" style="fill:#ff00ff;opacity:0.7;stroke:#ffffff;stroke-linejoin:miter;"/>
   </g>
   <g id="patch_44">
    <path clip-path="url(#p2099452b27)" d="M 346.351944 60.387207 
L 48.707375 60.387207 
L 48.707375 52.968149 
L 346.351944 52.968149 
z
" style="fill:#ff00ff;opacity:0.7;stroke:#ffffff;stroke-linejoin:miter;"/>
   </g>
   <g id="patch_45">
    <path clip-path="url(#p2099452b27)" d="M 346.351944 646.492793 
L 84.819702 646.492793 
L 84.819702 639.073735 
L 346.351944 639.073735 
z
" style="fill:#ff0000;opacity:0.7;stroke:#ffffff;stroke-linejoin:miter;"/>
   </g>
   <g id="patch_46">
    <path clip-path="url(#p2099452b27)" d="M 346.351944 616.816561 
L 81.96316 616.816561 
L 81.96316 609.397503 
L 346.351944 609.397503 
z
" style="fill:#ff0000;opacity:0.7;stroke:#ffffff;stroke-linejoin:miter;"/>
   </g>
   <g id="patch_47">
    <path clip-path="url(#p2099452b27)" d="M 346.351944 587.140329 
L 70.74859 587.140329 
L 70.74859 579.721271 
L 346.351944 579.721271 
z
" style="fill:#ff0000;opacity:0.7;stroke:#ffffff;stroke-linejoin:miter;"/>
   </g>
   <g id="patch_48">
    <path clip-path="url(#p2099452b27)" d="M 346.351944 557.464096 
L 72.547153 557.464096 
L 72.547153 550.045038 
L 346.351944 550.045038 
z
" style="fill:#ff0000;opacity:0.7;stroke:#ffffff;stroke-linejoin:miter;"/>
   </g>
   <g id="patch_49">
    <path clip-path="url(#p2099452b27)" d="M 346.351944 527.787864 
L 75.721088 527.787864 
L 75.721088 520.368806 
L 346.351944 520.368806 
z
" style="fill:#ff0000;opacity:0.7;stroke:#ffffff;stroke-linejoin:miter;"/>
   </g>
   <g id="patch_50">
    <path clip-path="url(#p2099452b27)" d="M 346.351944 498.111632 
L 74.239918 498.111632 
L 74.239918 490.692574 
L 346.351944 490.692574 
z
" style="fill:#ff0000;opacity:0.7;stroke:#ffffff;stroke-linejoin:miter;"/>
   </g>
   <g id="patch_51">
    <path clip-path="url(#p2099452b27)" d="M 346.351944 468.4354 
L 77.202258 468.4354 
L 77.202258 461.016342 
L 346.351944 461.016342 
z
" style="fill:#ff0000;opacity:0.7;stroke:#ffffff;stroke-linejoin:miter;"/>
   </g>
   <g id="patch_52">
    <path clip-path="url(#p2099452b27)" d="M 346.351944 438.759168 
L 78.577629 438.759168 
L 78.577629 431.34011 
L 346.351944 431.34011 
z
" style="fill:#ff0000;opacity:0.7;stroke:#ffffff;stroke-linejoin:miter;"/>
   </g>
   <g id="patch_53">
    <path clip-path="url(#p2099452b27)" d="M 346.351944 409.082935 
L 80.587788 409.082935 
L 80.587788 401.663877 
L 346.351944 401.663877 
z
" style="fill:#ff0000;opacity:0.7;stroke:#ffffff;stroke-linejoin:miter;"/>
   </g>
   <g id="patch_54">
    <path clip-path="url(#p2099452b27)" d="M 346.351944 379.406703 
L 81.539969 379.406703 
L 81.539969 371.987645 
L 346.351944 371.987645 
z
" style="fill:#ff0000;opacity:0.7;stroke:#ffffff;stroke-linejoin:miter;"/>
   </g>
   <g id="patch_55">
    <path clip-path="url(#p2099452b27)" d="M 346.351944 349.730471 
L 87.782041 349.730471 
L 87.782041 342.311413 
L 346.351944 342.311413 
z
" style="fill:#ff0000;opacity:0.7;stroke:#ffffff;stroke-linejoin:miter;"/>
   </g>
   <g id="patch_56">
    <path clip-path="url(#p2099452b27)" d="M 346.351944 320.054239 
L 94.447304 320.054239 
L 94.447304 312.635181 
L 346.351944 312.635181 
z
" style="fill:#ff0000;opacity:0.7;stroke:#ffffff;stroke-linejoin:miter;"/>
   </g>
   <g id="patch_57">
    <path clip-path="url(#p2099452b27)" d="M 346.351944 290.378007 
L 93.389326 290.378007 
L 93.389326 282.958949 
L 346.351944 282.958949 
z
" style="fill:#ff0000;opacity:0.7;stroke:#ffffff;stroke-linejoin:miter;"/>
   </g>
   <g id="patch_58">
    <path clip-path="url(#p2099452b27)" d="M 346.351944 260.701774 
L 94.129911 260.701774 
L 94.129911 253.282716 
L 346.351944 253.282716 
z
" style="fill:#ff0000;opacity:0.7;stroke:#ffffff;stroke-linejoin:miter;"/>
   </g>
   <g id="patch_59">
    <path clip-path="url(#p2099452b27)" d="M 346.351944 231.025542 
L 85.87768 231.025542 
L 85.87768 223.606484 
L 346.351944 223.606484 
z
" style="fill:#ff0000;opacity:0.7;stroke:#ffffff;stroke-linejoin:miter;"/>
   </g>
   <g id="patch_60">
    <path clip-path="url(#p2099452b27)" d="M 346.351944 201.34931 
L 83.973319 201.34931 
L 83.973319 193.930252 
L 346.351944 193.930252 
z
" style="fill:#ff0000;opacity:0.7;stroke:#ffffff;stroke-linejoin:miter;"/>
   </g>
   <g id="patch_61">
    <path clip-path="url(#p2099452b27)" d="M 346.351944 171.673078 
L 73.287738 171.673078 
L 73.287738 164.25402 
L 346.351944 164.25402 
z
" style="fill:#ff0000;opacity:0.7;stroke:#ffffff;stroke-linejoin:miter;"/>
   </g>
   <g id="patch_62">
    <path clip-path="url(#p2099452b27)" d="M 346.351944 141.996846 
L 66.83407 141.996846 
L 66.83407 134.577788 
L 346.351944 134.577788 
z
" style="fill:#ff0000;opacity:0.7;stroke:#ffffff;stroke-linejoin:miter;"/>
   </g>
   <g id="patch_63">
    <path clip-path="url(#p2099452b27)" d="M 346.351944 112.320613 
L 57.523861 112.320613 
L 57.523861 104.901555 
L 346.351944 104.901555 
z
" style="fill:#ff0000;opacity:0.7;stroke:#ffffff;stroke-linejoin:miter;"/>
   </g>
   <g id="patch_64">
    <path clip-path="url(#p2099452b27)" d="M 346.351944 82.644381 
L 52.974554 82.644381 
L 52.974554 75.225323 
L 346.351944 75.225323 
z
" style="fill:#ff0000;opacity:0.7;stroke:#ffffff;stroke-linejoin:miter;"/>
   </g>
   <g id="patch_65">
    <path clip-path="url(#p2099452b27)" d="M 346.351944 52.968149 
L 49.694821 52.968149 
L 49.694821 45.549091 
L 346.351944 45.549091 
z
" style="fill:#ff0000;opacity:0.7;stroke:#ffffff;stroke-linejoin:miter;"/>
   </g>
   <g id="matplotlib.axis_1">
    <g id="xtick_1">
     <g id="line2d_1">
      <defs>
       <path d="M 0 0 
L 0 3.5 
" id="m52b1d8767c" style="stroke:#000000;stroke-width:0.8;"/>
      </defs>
      <g>
       <use style="stroke:#000000;stroke-width:0.8;" x="346.351944" xlink:href="#m52b1d8767c" y="692.12"/>
      </g>
     </g>
     <g id="text_1">
      <!-- 0 -->
      <defs>
       <path d="M 31.78125 66.40625 
Q 24.171875 66.40625 20.328125 58.90625 
Q 16.5 51.421875 16.5 36.375 
Q 16.5 21.390625 20.328125 13.890625 
Q 24.171875 6.390625 31.78125 6.390625 
Q 39.453125 6.390625 43.28125 13.890625 
Q 47.125 21.390625 47.125 36.375 
Q 47.125 51.421875 43.28125 58.90625 
Q 39.453125 66.40625 31.78125 66.40625 
z
M 31.78125 74.21875 
Q 44.046875 74.21875 50.515625 64.515625 
Q 56.984375 54.828125 56.984375 36.375 
Q 56.984375 17.96875 50.515625 8.265625 
Q 44.046875 -1.421875 31.78125 -1.421875 
Q 19.53125 -1.421875 13.0625 8.265625 
Q 6.59375 17.96875 6.59375 36.375 
Q 6.59375 54.828125 13.0625 64.515625 
Q 19.53125 74.21875 31.78125 74.21875 
z
" id="DejaVuSans-48"/>
      </defs>
      <g transform="translate(341.898194 709.757812)scale(0.14 -0.14)">
       <use xlink:href="#DejaVuSans-48"/>
      </g>
     </g>
    </g>
    <g id="xtick_2">
     <g id="line2d_2">
      <g>
       <use style="stroke:#000000;stroke-width:0.8;" x="261.713678" xlink:href="#m52b1d8767c" y="692.12"/>
      </g>
     </g>
     <g id="text_2">
      <!-- 20 -->
      <defs>
       <path d="M 19.1875 8.296875 
L 53.609375 8.296875 
L 53.609375 0 
L 7.328125 0 
L 7.328125 8.296875 
Q 12.9375 14.109375 22.625 23.890625 
Q 32.328125 33.6875 34.8125 36.53125 
Q 39.546875 41.84375 41.421875 45.53125 
Q 43.3125 49.21875 43.3125 52.78125 
Q 43.3125 58.59375 39.234375 62.25 
Q 35.15625 65.921875 28.609375 65.921875 
Q 23.96875 65.921875 18.8125 64.3125 
Q 13.671875 62.703125 7.8125 59.421875 
L 7.8125 69.390625 
Q 13.765625 71.78125 18.9375 73 
Q 24.125 74.21875 28.421875 74.21875 
Q 39.75 74.21875 46.484375 68.546875 
Q 53.21875 62.890625 53.21875 53.421875 
Q 53.21875 48.921875 51.53125 44.890625 
Q 49.859375 40.875 45.40625 35.40625 
Q 44.1875 33.984375 37.640625 27.21875 
Q 31.109375 20.453125 19.1875 8.296875 
z
" id="DejaVuSans-50"/>
      </defs>
      <g transform="translate(252.806178 709.757812)scale(0.14 -0.14)">
       <use xlink:href="#DejaVuSans-50"/>
       <use x="63.623047" xlink:href="#DejaVuSans-48"/>
      </g>
     </g>
    </g>
    <g id="xtick_3">
     <g id="line2d_3">
      <g>
       <use style="stroke:#000000;stroke-width:0.8;" x="177.075412" xlink:href="#m52b1d8767c" y="692.12"/>
      </g>
     </g>
     <g id="text_3">
      <!-- 40 -->
      <defs>
       <path d="M 37.796875 64.3125 
L 12.890625 25.390625 
L 37.796875 25.390625 
z
M 35.203125 72.90625 
L 47.609375 72.90625 
L 47.609375 25.390625 
L 58.015625 25.390625 
L 58.015625 17.1875 
L 47.609375 17.1875 
L 47.609375 0 
L 37.796875 0 
L 37.796875 17.1875 
L 4.890625 17.1875 
L 4.890625 26.703125 
z
" id="DejaVuSans-52"/>
      </defs>
      <g transform="translate(168.167912 709.757812)scale(0.14 -0.14)">
       <use xlink:href="#DejaVuSans-52"/>
       <use x="63.623047" xlink:href="#DejaVuSans-48"/>
      </g>
     </g>
    </g>
    <g id="xtick_4">
     <g id="line2d_4">
      <g>
       <use style="stroke:#000000;stroke-width:0.8;" x="92.437145" xlink:href="#m52b1d8767c" y="692.12"/>
      </g>
     </g>
     <g id="text_4">
      <!-- 60 -->
      <defs>
       <path d="M 33.015625 40.375 
Q 26.375 40.375 22.484375 35.828125 
Q 18.609375 31.296875 18.609375 23.390625 
Q 18.609375 15.53125 22.484375 10.953125 
Q 26.375 6.390625 33.015625 6.390625 
Q 39.65625 6.390625 43.53125 10.953125 
Q 47.40625 15.53125 47.40625 23.390625 
Q 47.40625 31.296875 43.53125 35.828125 
Q 39.65625 40.375 33.015625 40.375 
z
M 52.59375 71.296875 
L 52.59375 62.3125 
Q 48.875 64.0625 45.09375 64.984375 
Q 41.3125 65.921875 37.59375 65.921875 
Q 27.828125 65.921875 22.671875 59.328125 
Q 17.53125 52.734375 16.796875 39.40625 
Q 19.671875 43.65625 24.015625 45.921875 
Q 28.375 48.1875 33.59375 48.1875 
Q 44.578125 48.1875 50.953125 41.515625 
Q 57.328125 34.859375 57.328125 23.390625 
Q 57.328125 12.15625 50.6875 5.359375 
Q 44.046875 -1.421875 33.015625 -1.421875 
Q 20.359375 -1.421875 13.671875 8.265625 
Q 6.984375 17.96875 6.984375 36.375 
Q 6.984375 53.65625 15.1875 63.9375 
Q 23.390625 74.21875 37.203125 74.21875 
Q 40.921875 74.21875 44.703125 73.484375 
Q 48.484375 72.75 52.59375 71.296875 
z
" id="DejaVuSans-54"/>
      </defs>
      <g transform="translate(83.529645 709.757812)scale(0.14 -0.14)">
       <use xlink:href="#DejaVuSans-54"/>
       <use x="63.623047" xlink:href="#DejaVuSans-48"/>
      </g>
     </g>
    </g>
   </g>
   <g id="matplotlib.axis_2"/>
   <g id="patch_66">
    <path d="M 33.64 692.12 
L 33.64 14.76 
" style="fill:none;stroke:#000000;stroke-linecap:square;stroke-linejoin:miter;stroke-width:0.8;"/>
   </g>
   <g id="patch_67">
    <path d="M 346.351944 692.12 
L 346.351944 14.76 
" style="fill:none;stroke:#000000;stroke-linecap:square;stroke-linejoin:miter;stroke-width:0.8;"/>
   </g>
   <g id="patch_68">
    <path d="M 33.64 692.12 
L 346.351944 692.12 
" style="fill:none;stroke:#000000;stroke-linecap:square;stroke-linejoin:miter;stroke-width:0.8;"/>
   </g>
   <g id="patch_69">
    <path d="M 33.64 14.76 
L 346.351944 14.76 
" style="fill:none;stroke:#000000;stroke-linecap:square;stroke-linejoin:miter;stroke-width:0.8;"/>
   </g>
   <g id="text_5">
    <!-- 1998 -->
    <defs>
     <path d="M 12.40625 8.296875 
L 28.515625 8.296875 
L 28.515625 63.921875 
L 10.984375 60.40625 
L 10.984375 69.390625 
L 28.421875 72.90625 
L 38.28125 72.90625 
L 38.28125 8.296875 
L 54.390625 8.296875 
L 54.390625 0 
L 12.40625 0 
z
" id="DejaVuSans-49"/>
     <path d="M 10.984375 1.515625 
L 10.984375 10.5 
Q 14.703125 8.734375 18.5 7.8125 
Q 22.3125 6.890625 25.984375 6.890625 
Q 35.75 6.890625 40.890625 13.453125 
Q 46.046875 20.015625 46.78125 33.40625 
Q 43.953125 29.203125 39.59375 26.953125 
Q 35.25 24.703125 29.984375 24.703125 
Q 19.046875 24.703125 12.671875 31.3125 
Q 6.296875 37.9375 6.296875 49.421875 
Q 6.296875 60.640625 12.9375 67.421875 
Q 19.578125 74.21875 30.609375 74.21875 
Q 43.265625 74.21875 49.921875 64.515625 
Q 56.59375 54.828125 56.59375 36.375 
Q 56.59375 19.140625 48.40625 8.859375 
Q 40.234375 -1.421875 26.421875 -1.421875 
Q 22.703125 -1.421875 18.890625 -0.6875 
Q 15.09375 0.046875 10.984375 1.515625 
z
M 30.609375 32.421875 
Q 37.25 32.421875 41.125 36.953125 
Q 45.015625 41.5 45.015625 49.421875 
Q 45.015625 57.28125 41.125 61.84375 
Q 37.25 66.40625 30.609375 66.40625 
Q 23.96875 66.40625 20.09375 61.84375 
Q 16.21875 57.28125 16.21875 49.421875 
Q 16.21875 41.5 20.09375 36.953125 
Q 23.96875 32.421875 30.609375 32.421875 
z
" id="DejaVuSans-57"/>
     <path d="M 31.78125 34.625 
Q 24.75 34.625 20.71875 30.859375 
Q 16.703125 27.09375 16.703125 20.515625 
Q 16.703125 13.921875 20.71875 10.15625 
Q 24.75 6.390625 31.78125 6.390625 
Q 38.8125 6.390625 42.859375 10.171875 
Q 46.921875 13.96875 46.921875 20.515625 
Q 46.921875 27.09375 42.890625 30.859375 
Q 38.875 34.625 31.78125 34.625 
z
M 21.921875 38.8125 
Q 15.578125 40.375 12.03125 44.71875 
Q 8.5 49.078125 8.5 55.328125 
Q 8.5 64.0625 14.71875 69.140625 
Q 20.953125 74.21875 31.78125 74.21875 
Q 42.671875 74.21875 48.875 69.140625 
Q 55.078125 64.0625 55.078125 55.328125 
Q 55.078125 49.078125 51.53125 44.71875 
Q 48 40.375 41.703125 38.8125 
Q 48.828125 37.15625 52.796875 32.3125 
Q 56.78125 27.484375 56.78125 20.515625 
Q 56.78125 9.90625 50.3125 4.234375 
Q 43.84375 -1.421875 31.78125 -1.421875 
Q 19.734375 -1.421875 13.25 4.234375 
Q 6.78125 9.90625 6.78125 20.515625 
Q 6.78125 27.484375 10.78125 32.3125 
Q 14.796875 37.15625 21.921875 38.8125 
z
M 18.3125 54.390625 
Q 18.3125 48.734375 21.84375 45.5625 
Q 25.390625 42.390625 31.78125 42.390625 
Q 38.140625 42.390625 41.71875 45.5625 
Q 45.3125 48.734375 45.3125 54.390625 
Q 45.3125 60.0625 41.71875 63.234375 
Q 38.140625 66.40625 31.78125 66.40625 
Q 25.390625 66.40625 21.84375 63.234375 
Q 18.3125 60.0625 18.3125 54.390625 
z
" id="DejaVuSans-56"/>
    </defs>
    <g transform="translate(348.891092 654.653757)scale(0.14 -0.14)">
     <use xlink:href="#DejaVuSans-49"/>
     <use x="63.623047" xlink:href="#DejaVuSans-57"/>
     <use x="127.246094" xlink:href="#DejaVuSans-57"/>
     <use x="190.869141" xlink:href="#DejaVuSans-56"/>
    </g>
   </g>
   <g id="text_6">
    <!-- 1999 -->
    <g transform="translate(348.891092 624.977525)scale(0.14 -0.14)">
     <use xlink:href="#DejaVuSans-49"/>
     <use x="63.623047" xlink:href="#DejaVuSans-57"/>
     <use x="127.246094" xlink:href="#DejaVuSans-57"/>
     <use x="190.869141" xlink:href="#DejaVuSans-57"/>
    </g>
   </g>
   <g id="text_7">
    <!-- 2000 -->
    <g transform="translate(348.891092 595.301292)scale(0.14 -0.14)">
     <use xlink:href="#DejaVuSans-50"/>
     <use x="63.623047" xlink:href="#DejaVuSans-48"/>
     <use x="127.246094" xlink:href="#DejaVuSans-48"/>
     <use x="190.869141" xlink:href="#DejaVuSans-48"/>
    </g>
   </g>
   <g id="text_8">
    <!-- 2001 -->
    <g transform="translate(348.891092 565.62506)scale(0.14 -0.14)">
     <use xlink:href="#DejaVuSans-50"/>
     <use x="63.623047" xlink:href="#DejaVuSans-48"/>
     <use x="127.246094" xlink:href="#DejaVuSans-48"/>
     <use x="190.869141" xlink:href="#DejaVuSans-49"/>
    </g>
   </g>
   <g id="text_9">
    <!-- 2002 -->
    <g transform="translate(348.891092 535.948828)scale(0.14 -0.14)">
     <use xlink:href="#DejaVuSans-50"/>
     <use x="63.623047" xlink:href="#DejaVuSans-48"/>
     <use x="127.246094" xlink:href="#DejaVuSans-48"/>
     <use x="190.869141" xlink:href="#DejaVuSans-50"/>
    </g>
   </g>
   <g id="text_10">
    <!-- 2003 -->
    <defs>
     <path d="M 40.578125 39.3125 
Q 47.65625 37.796875 51.625 33 
Q 55.609375 28.21875 55.609375 21.1875 
Q 55.609375 10.40625 48.1875 4.484375 
Q 40.765625 -1.421875 27.09375 -1.421875 
Q 22.515625 -1.421875 17.65625 -0.515625 
Q 12.796875 0.390625 7.625 2.203125 
L 7.625 11.71875 
Q 11.71875 9.328125 16.59375 8.109375 
Q 21.484375 6.890625 26.8125 6.890625 
Q 36.078125 6.890625 40.9375 10.546875 
Q 45.796875 14.203125 45.796875 21.1875 
Q 45.796875 27.640625 41.28125 31.265625 
Q 36.765625 34.90625 28.71875 34.90625 
L 20.21875 34.90625 
L 20.21875 43.015625 
L 29.109375 43.015625 
Q 36.375 43.015625 40.234375 45.921875 
Q 44.09375 48.828125 44.09375 54.296875 
Q 44.09375 59.90625 40.109375 62.90625 
Q 36.140625 65.921875 28.71875 65.921875 
Q 24.65625 65.921875 20.015625 65.03125 
Q 15.375 64.15625 9.8125 62.3125 
L 9.8125 71.09375 
Q 15.4375 72.65625 20.34375 73.4375 
Q 25.25 74.21875 29.59375 74.21875 
Q 40.828125 74.21875 47.359375 69.109375 
Q 53.90625 64.015625 53.90625 55.328125 
Q 53.90625 49.265625 50.4375 45.09375 
Q 46.96875 40.921875 40.578125 39.3125 
z
" id="DejaVuSans-51"/>
    </defs>
    <g transform="translate(348.891092 506.272596)scale(0.14 -0.14)">
     <use xlink:href="#DejaVuSans-50"/>
     <use x="63.623047" xlink:href="#DejaVuSans-48"/>
     <use x="127.246094" xlink:href="#DejaVuSans-48"/>
     <use x="190.869141" xlink:href="#DejaVuSans-51"/>
    </g>
   </g>
   <g id="text_11">
    <!-- 2004 -->
    <g transform="translate(348.891092 476.596364)scale(0.14 -0.14)">
     <use xlink:href="#DejaVuSans-50"/>
     <use x="63.623047" xlink:href="#DejaVuSans-48"/>
     <use x="127.246094" xlink:href="#DejaVuSans-48"/>
     <use x="190.869141" xlink:href="#DejaVuSans-52"/>
    </g>
   </g>
   <g id="text_12">
    <!-- 2005 -->
    <defs>
     <path d="M 10.796875 72.90625 
L 49.515625 72.90625 
L 49.515625 64.59375 
L 19.828125 64.59375 
L 19.828125 46.734375 
Q 21.96875 47.46875 24.109375 47.828125 
Q 26.265625 48.1875 28.421875 48.1875 
Q 40.625 48.1875 47.75 41.5 
Q 54.890625 34.8125 54.890625 23.390625 
Q 54.890625 11.625 47.5625 5.09375 
Q 40.234375 -1.421875 26.90625 -1.421875 
Q 22.3125 -1.421875 17.546875 -0.640625 
Q 12.796875 0.140625 7.71875 1.703125 
L 7.71875 11.625 
Q 12.109375 9.234375 16.796875 8.0625 
Q 21.484375 6.890625 26.703125 6.890625 
Q 35.15625 6.890625 40.078125 11.328125 
Q 45.015625 15.765625 45.015625 23.390625 
Q 45.015625 31 40.078125 35.4375 
Q 35.15625 39.890625 26.703125 39.890625 
Q 22.75 39.890625 18.8125 39.015625 
Q 14.890625 38.140625 10.796875 36.28125 
z
" id="DejaVuSans-53"/>
    </defs>
    <g transform="translate(348.891092 446.920131)scale(0.14 -0.14)">
     <use xlink:href="#DejaVuSans-50"/>
     <use x="63.623047" xlink:href="#DejaVuSans-48"/>
     <use x="127.246094" xlink:href="#DejaVuSans-48"/>
     <use x="190.869141" xlink:href="#DejaVuSans-53"/>
    </g>
   </g>
   <g id="text_13">
    <!-- 2006 -->
    <g transform="translate(348.891092 417.243899)scale(0.14 -0.14)">
     <use xlink:href="#DejaVuSans-50"/>
     <use x="63.623047" xlink:href="#DejaVuSans-48"/>
     <use x="127.246094" xlink:href="#DejaVuSans-48"/>
     <use x="190.869141" xlink:href="#DejaVuSans-54"/>
    </g>
   </g>
   <g id="text_14">
    <!-- 2007 -->
    <defs>
     <path d="M 8.203125 72.90625 
L 55.078125 72.90625 
L 55.078125 68.703125 
L 28.609375 0 
L 18.3125 0 
L 43.21875 64.59375 
L 8.203125 64.59375 
z
" id="DejaVuSans-55"/>
    </defs>
    <g transform="translate(348.891092 387.567667)scale(0.14 -0.14)">
     <use xlink:href="#DejaVuSans-50"/>
     <use x="63.623047" xlink:href="#DejaVuSans-48"/>
     <use x="127.246094" xlink:href="#DejaVuSans-48"/>
     <use x="190.869141" xlink:href="#DejaVuSans-55"/>
    </g>
   </g>
   <g id="text_15">
    <!-- 2008 -->
    <g transform="translate(348.891092 357.891435)scale(0.14 -0.14)">
     <use xlink:href="#DejaVuSans-50"/>
     <use x="63.623047" xlink:href="#DejaVuSans-48"/>
     <use x="127.246094" xlink:href="#DejaVuSans-48"/>
     <use x="190.869141" xlink:href="#DejaVuSans-56"/>
    </g>
   </g>
   <g id="text_16">
    <!-- 2009 -->
    <g transform="translate(348.891092 328.215203)scale(0.14 -0.14)">
     <use xlink:href="#DejaVuSans-50"/>
     <use x="63.623047" xlink:href="#DejaVuSans-48"/>
     <use x="127.246094" xlink:href="#DejaVuSans-48"/>
     <use x="190.869141" xlink:href="#DejaVuSans-57"/>
    </g>
   </g>
   <g id="text_17">
    <!-- 2010 -->
    <g transform="translate(348.891092 298.53897)scale(0.14 -0.14)">
     <use xlink:href="#DejaVuSans-50"/>
     <use x="63.623047" xlink:href="#DejaVuSans-48"/>
     <use x="127.246094" xlink:href="#DejaVuSans-49"/>
     <use x="190.869141" xlink:href="#DejaVuSans-48"/>
    </g>
   </g>
   <g id="text_18">
    <!-- 2011 -->
    <g transform="translate(348.891092 268.862738)scale(0.14 -0.14)">
     <use xlink:href="#DejaVuSans-50"/>
     <use x="63.623047" xlink:href="#DejaVuSans-48"/>
     <use x="127.246094" xlink:href="#DejaVuSans-49"/>
     <use x="190.869141" xlink:href="#DejaVuSans-49"/>
    </g>
   </g>
   <g id="text_19">
    <!-- 2012 -->
    <g transform="translate(348.891092 239.186506)scale(0.14 -0.14)">
     <use xlink:href="#DejaVuSans-50"/>
     <use x="63.623047" xlink:href="#DejaVuSans-48"/>
     <use x="127.246094" xlink:href="#DejaVuSans-49"/>
     <use x="190.869141" xlink:href="#DejaVuSans-50"/>
    </g>
   </g>
   <g id="text_20">
    <!-- 2013 -->
    <g transform="translate(348.891092 209.510274)scale(0.14 -0.14)">
     <use xlink:href="#DejaVuSans-50"/>
     <use x="63.623047" xlink:href="#DejaVuSans-48"/>
     <use x="127.246094" xlink:href="#DejaVuSans-49"/>
     <use x="190.869141" xlink:href="#DejaVuSans-51"/>
    </g>
   </g>
   <g id="text_21">
    <!-- 2014 -->
    <g transform="translate(348.891092 179.834042)scale(0.14 -0.14)">
     <use xlink:href="#DejaVuSans-50"/>
     <use x="63.623047" xlink:href="#DejaVuSans-48"/>
     <use x="127.246094" xlink:href="#DejaVuSans-49"/>
     <use x="190.869141" xlink:href="#DejaVuSans-52"/>
    </g>
   </g>
   <g id="text_22">
    <!-- 2015 -->
    <g transform="translate(348.891092 150.157809)scale(0.14 -0.14)">
     <use xlink:href="#DejaVuSans-50"/>
     <use x="63.623047" xlink:href="#DejaVuSans-48"/>
     <use x="127.246094" xlink:href="#DejaVuSans-49"/>
     <use x="190.869141" xlink:href="#DejaVuSans-53"/>
    </g>
   </g>
   <g id="text_23">
    <!-- 2016 -->
    <g transform="translate(348.891092 120.481577)scale(0.14 -0.14)">
     <use xlink:href="#DejaVuSans-50"/>
     <use x="63.623047" xlink:href="#DejaVuSans-48"/>
     <use x="127.246094" xlink:href="#DejaVuSans-49"/>
     <use x="190.869141" xlink:href="#DejaVuSans-54"/>
    </g>
   </g>
   <g id="text_24">
    <!-- 2017 -->
    <g transform="translate(348.891092 90.805345)scale(0.14 -0.14)">
     <use xlink:href="#DejaVuSans-50"/>
     <use x="63.623047" xlink:href="#DejaVuSans-48"/>
     <use x="127.246094" xlink:href="#DejaVuSans-49"/>
     <use x="190.869141" xlink:href="#DejaVuSans-55"/>
    </g>
   </g>
   <g id="text_25">
    <!-- 2018 -->
    <g transform="translate(348.891092 61.129113)scale(0.14 -0.14)">
     <use xlink:href="#DejaVuSans-50"/>
     <use x="63.623047" xlink:href="#DejaVuSans-48"/>
     <use x="127.246094" xlink:href="#DejaVuSans-49"/>
     <use x="190.869141" xlink:href="#DejaVuSans-56"/>
    </g>
   </g>
   <g id="text_26">
    <!-- Employed female [%], ages: 25-64 -->
    <defs>
     <path d="M 9.8125 72.90625 
L 55.90625 72.90625 
L 55.90625 64.59375 
L 19.671875 64.59375 
L 19.671875 43.015625 
L 54.390625 43.015625 
L 54.390625 34.71875 
L 19.671875 34.71875 
L 19.671875 8.296875 
L 56.78125 8.296875 
L 56.78125 0 
L 9.8125 0 
z
" id="DejaVuSans-69"/>
     <path d="M 52 44.1875 
Q 55.375 50.25 60.0625 53.125 
Q 64.75 56 71.09375 56 
Q 79.640625 56 84.28125 50.015625 
Q 88.921875 44.046875 88.921875 33.015625 
L 88.921875 0 
L 79.890625 0 
L 79.890625 32.71875 
Q 79.890625 40.578125 77.09375 44.375 
Q 74.3125 48.1875 68.609375 48.1875 
Q 61.625 48.1875 57.5625 43.546875 
Q 53.515625 38.921875 53.515625 30.90625 
L 53.515625 0 
L 44.484375 0 
L 44.484375 32.71875 
Q 44.484375 40.625 41.703125 44.40625 
Q 38.921875 48.1875 33.109375 48.1875 
Q 26.21875 48.1875 22.15625 43.53125 
Q 18.109375 38.875 18.109375 30.90625 
L 18.109375 0 
L 9.078125 0 
L 9.078125 54.6875 
L 18.109375 54.6875 
L 18.109375 46.1875 
Q 21.1875 51.21875 25.484375 53.609375 
Q 29.78125 56 35.6875 56 
Q 41.65625 56 45.828125 52.96875 
Q 50 49.953125 52 44.1875 
z
" id="DejaVuSans-109"/>
     <path d="M 18.109375 8.203125 
L 18.109375 -20.796875 
L 9.078125 -20.796875 
L 9.078125 54.6875 
L 18.109375 54.6875 
L 18.109375 46.390625 
Q 20.953125 51.265625 25.265625 53.625 
Q 29.59375 56 35.59375 56 
Q 45.5625 56 51.78125 48.09375 
Q 58.015625 40.1875 58.015625 27.296875 
Q 58.015625 14.40625 51.78125 6.484375 
Q 45.5625 -1.421875 35.59375 -1.421875 
Q 29.59375 -1.421875 25.265625 0.953125 
Q 20.953125 3.328125 18.109375 8.203125 
z
M 48.6875 27.296875 
Q 48.6875 37.203125 44.609375 42.84375 
Q 40.53125 48.484375 33.40625 48.484375 
Q 26.265625 48.484375 22.1875 42.84375 
Q 18.109375 37.203125 18.109375 27.296875 
Q 18.109375 17.390625 22.1875 11.75 
Q 26.265625 6.109375 33.40625 6.109375 
Q 40.53125 6.109375 44.609375 11.75 
Q 48.6875 17.390625 48.6875 27.296875 
z
" id="DejaVuSans-112"/>
     <path d="M 9.421875 75.984375 
L 18.40625 75.984375 
L 18.40625 0 
L 9.421875 0 
z
" id="DejaVuSans-108"/>
     <path d="M 30.609375 48.390625 
Q 23.390625 48.390625 19.1875 42.75 
Q 14.984375 37.109375 14.984375 27.296875 
Q 14.984375 17.484375 19.15625 11.84375 
Q 23.34375 6.203125 30.609375 6.203125 
Q 37.796875 6.203125 41.984375 11.859375 
Q 46.1875 17.53125 46.1875 27.296875 
Q 46.1875 37.015625 41.984375 42.703125 
Q 37.796875 48.390625 30.609375 48.390625 
z
M 30.609375 56 
Q 42.328125 56 49.015625 48.375 
Q 55.71875 40.765625 55.71875 27.296875 
Q 55.71875 13.875 49.015625 6.21875 
Q 42.328125 -1.421875 30.609375 -1.421875 
Q 18.84375 -1.421875 12.171875 6.21875 
Q 5.515625 13.875 5.515625 27.296875 
Q 5.515625 40.765625 12.171875 48.375 
Q 18.84375 56 30.609375 56 
z
" id="DejaVuSans-111"/>
     <path d="M 32.171875 -5.078125 
Q 28.375 -14.84375 24.75 -17.8125 
Q 21.140625 -20.796875 15.09375 -20.796875 
L 7.90625 -20.796875 
L 7.90625 -13.28125 
L 13.1875 -13.28125 
Q 16.890625 -13.28125 18.9375 -11.515625 
Q 21 -9.765625 23.484375 -3.21875 
L 25.09375 0.875 
L 2.984375 54.6875 
L 12.5 54.6875 
L 29.59375 11.921875 
L 46.6875 54.6875 
L 56.203125 54.6875 
z
" id="DejaVuSans-121"/>
     <path d="M 56.203125 29.59375 
L 56.203125 25.203125 
L 14.890625 25.203125 
Q 15.484375 15.921875 20.484375 11.0625 
Q 25.484375 6.203125 34.421875 6.203125 
Q 39.59375 6.203125 44.453125 7.46875 
Q 49.3125 8.734375 54.109375 11.28125 
L 54.109375 2.78125 
Q 49.265625 0.734375 44.1875 -0.34375 
Q 39.109375 -1.421875 33.890625 -1.421875 
Q 20.796875 -1.421875 13.15625 6.1875 
Q 5.515625 13.8125 5.515625 26.8125 
Q 5.515625 40.234375 12.765625 48.109375 
Q 20.015625 56 32.328125 56 
Q 43.359375 56 49.78125 48.890625 
Q 56.203125 41.796875 56.203125 29.59375 
z
M 47.21875 32.234375 
Q 47.125 39.59375 43.09375 43.984375 
Q 39.0625 48.390625 32.421875 48.390625 
Q 24.90625 48.390625 20.390625 44.140625 
Q 15.875 39.890625 15.1875 32.171875 
z
" id="DejaVuSans-101"/>
     <path d="M 45.40625 46.390625 
L 45.40625 75.984375 
L 54.390625 75.984375 
L 54.390625 0 
L 45.40625 0 
L 45.40625 8.203125 
Q 42.578125 3.328125 38.25 0.953125 
Q 33.9375 -1.421875 27.875 -1.421875 
Q 17.96875 -1.421875 11.734375 6.484375 
Q 5.515625 14.40625 5.515625 27.296875 
Q 5.515625 40.1875 11.734375 48.09375 
Q 17.96875 56 27.875 56 
Q 33.9375 56 38.25 53.625 
Q 42.578125 51.265625 45.40625 46.390625 
z
M 14.796875 27.296875 
Q 14.796875 17.390625 18.875 11.75 
Q 22.953125 6.109375 30.078125 6.109375 
Q 37.203125 6.109375 41.296875 11.75 
Q 45.40625 17.390625 45.40625 27.296875 
Q 45.40625 37.203125 41.296875 42.84375 
Q 37.203125 48.484375 30.078125 48.484375 
Q 22.953125 48.484375 18.875 42.84375 
Q 14.796875 37.203125 14.796875 27.296875 
z
" id="DejaVuSans-100"/>
     <path id="DejaVuSans-32"/>
     <path d="M 37.109375 75.984375 
L 37.109375 68.5 
L 28.515625 68.5 
Q 23.6875 68.5 21.796875 66.546875 
Q 19.921875 64.59375 19.921875 59.515625 
L 19.921875 54.6875 
L 34.71875 54.6875 
L 34.71875 47.703125 
L 19.921875 47.703125 
L 19.921875 0 
L 10.890625 0 
L 10.890625 47.703125 
L 2.296875 47.703125 
L 2.296875 54.6875 
L 10.890625 54.6875 
L 10.890625 58.5 
Q 10.890625 67.625 15.140625 71.796875 
Q 19.390625 75.984375 28.609375 75.984375 
z
" id="DejaVuSans-102"/>
     <path d="M 34.28125 27.484375 
Q 23.390625 27.484375 19.1875 25 
Q 14.984375 22.515625 14.984375 16.5 
Q 14.984375 11.71875 18.140625 8.90625 
Q 21.296875 6.109375 26.703125 6.109375 
Q 34.1875 6.109375 38.703125 11.40625 
Q 43.21875 16.703125 43.21875 25.484375 
L 43.21875 27.484375 
z
M 52.203125 31.203125 
L 52.203125 0 
L 43.21875 0 
L 43.21875 8.296875 
Q 40.140625 3.328125 35.546875 0.953125 
Q 30.953125 -1.421875 24.3125 -1.421875 
Q 15.921875 -1.421875 10.953125 3.296875 
Q 6 8.015625 6 15.921875 
Q 6 25.140625 12.171875 29.828125 
Q 18.359375 34.515625 30.609375 34.515625 
L 43.21875 34.515625 
L 43.21875 35.40625 
Q 43.21875 41.609375 39.140625 45 
Q 35.0625 48.390625 27.6875 48.390625 
Q 23 48.390625 18.546875 47.265625 
Q 14.109375 46.140625 10.015625 43.890625 
L 10.015625 52.203125 
Q 14.9375 54.109375 19.578125 55.046875 
Q 24.21875 56 28.609375 56 
Q 40.484375 56 46.34375 49.84375 
Q 52.203125 43.703125 52.203125 31.203125 
z
" id="DejaVuSans-97"/>
     <path d="M 8.59375 75.984375 
L 29.296875 75.984375 
L 29.296875 69 
L 17.578125 69 
L 17.578125 -6.203125 
L 29.296875 -6.203125 
L 29.296875 -13.1875 
L 8.59375 -13.1875 
z
" id="DejaVuSans-91"/>
     <path d="M 72.703125 32.078125 
Q 68.453125 32.078125 66.03125 28.46875 
Q 63.625 24.859375 63.625 18.40625 
Q 63.625 12.0625 66.03125 8.421875 
Q 68.453125 4.78125 72.703125 4.78125 
Q 76.859375 4.78125 79.265625 8.421875 
Q 81.6875 12.0625 81.6875 18.40625 
Q 81.6875 24.8125 79.265625 28.4375 
Q 76.859375 32.078125 72.703125 32.078125 
z
M 72.703125 38.28125 
Q 80.421875 38.28125 84.953125 32.90625 
Q 89.5 27.546875 89.5 18.40625 
Q 89.5 9.28125 84.9375 3.921875 
Q 80.375 -1.421875 72.703125 -1.421875 
Q 64.890625 -1.421875 60.34375 3.921875 
Q 55.8125 9.28125 55.8125 18.40625 
Q 55.8125 27.59375 60.375 32.9375 
Q 64.9375 38.28125 72.703125 38.28125 
z
M 22.3125 68.015625 
Q 18.109375 68.015625 15.6875 64.375 
Q 13.28125 60.75 13.28125 54.390625 
Q 13.28125 47.953125 15.671875 44.328125 
Q 18.0625 40.71875 22.3125 40.71875 
Q 26.5625 40.71875 28.96875 44.328125 
Q 31.390625 47.953125 31.390625 54.390625 
Q 31.390625 60.6875 28.953125 64.34375 
Q 26.515625 68.015625 22.3125 68.015625 
z
M 66.40625 74.21875 
L 74.21875 74.21875 
L 28.609375 -1.421875 
L 20.796875 -1.421875 
z
M 22.3125 74.21875 
Q 30.03125 74.21875 34.609375 68.875 
Q 39.203125 63.53125 39.203125 54.390625 
Q 39.203125 45.171875 34.640625 39.84375 
Q 30.078125 34.515625 22.3125 34.515625 
Q 14.546875 34.515625 10.03125 39.859375 
Q 5.515625 45.21875 5.515625 54.390625 
Q 5.515625 63.484375 10.046875 68.84375 
Q 14.59375 74.21875 22.3125 74.21875 
z
" id="DejaVuSans-37"/>
     <path d="M 30.421875 75.984375 
L 30.421875 -13.1875 
L 9.71875 -13.1875 
L 9.71875 -6.203125 
L 21.390625 -6.203125 
L 21.390625 69 
L 9.71875 69 
L 9.71875 75.984375 
z
" id="DejaVuSans-93"/>
     <path d="M 11.71875 12.40625 
L 22.015625 12.40625 
L 22.015625 4 
L 14.015625 -11.625 
L 7.71875 -11.625 
L 11.71875 4 
z
" id="DejaVuSans-44"/>
     <path d="M 45.40625 27.984375 
Q 45.40625 37.75 41.375 43.109375 
Q 37.359375 48.484375 30.078125 48.484375 
Q 22.859375 48.484375 18.828125 43.109375 
Q 14.796875 37.75 14.796875 27.984375 
Q 14.796875 18.265625 18.828125 12.890625 
Q 22.859375 7.515625 30.078125 7.515625 
Q 37.359375 7.515625 41.375 12.890625 
Q 45.40625 18.265625 45.40625 27.984375 
z
M 54.390625 6.78125 
Q 54.390625 -7.171875 48.1875 -13.984375 
Q 42 -20.796875 29.203125 -20.796875 
Q 24.46875 -20.796875 20.265625 -20.09375 
Q 16.0625 -19.390625 12.109375 -17.921875 
L 12.109375 -9.1875 
Q 16.0625 -11.328125 19.921875 -12.34375 
Q 23.78125 -13.375 27.78125 -13.375 
Q 36.625 -13.375 41.015625 -8.765625 
Q 45.40625 -4.15625 45.40625 5.171875 
L 45.40625 9.625 
Q 42.625 4.78125 38.28125 2.390625 
Q 33.9375 0 27.875 0 
Q 17.828125 0 11.671875 7.65625 
Q 5.515625 15.328125 5.515625 27.984375 
Q 5.515625 40.671875 11.671875 48.328125 
Q 17.828125 56 27.875 56 
Q 33.9375 56 38.28125 53.609375 
Q 42.625 51.21875 45.40625 46.390625 
L 45.40625 54.6875 
L 54.390625 54.6875 
z
" id="DejaVuSans-103"/>
     <path d="M 44.28125 53.078125 
L 44.28125 44.578125 
Q 40.484375 46.53125 36.375 47.5 
Q 32.28125 48.484375 27.875 48.484375 
Q 21.1875 48.484375 17.84375 46.4375 
Q 14.5 44.390625 14.5 40.28125 
Q 14.5 37.15625 16.890625 35.375 
Q 19.28125 33.59375 26.515625 31.984375 
L 29.59375 31.296875 
Q 39.15625 29.25 43.1875 25.515625 
Q 47.21875 21.78125 47.21875 15.09375 
Q 47.21875 7.46875 41.1875 3.015625 
Q 35.15625 -1.421875 24.609375 -1.421875 
Q 20.21875 -1.421875 15.453125 -0.5625 
Q 10.6875 0.296875 5.421875 2 
L 5.421875 11.28125 
Q 10.40625 8.6875 15.234375 7.390625 
Q 20.0625 6.109375 24.8125 6.109375 
Q 31.15625 6.109375 34.5625 8.28125 
Q 37.984375 10.453125 37.984375 14.40625 
Q 37.984375 18.0625 35.515625 20.015625 
Q 33.0625 21.96875 24.703125 23.78125 
L 21.578125 24.515625 
Q 13.234375 26.265625 9.515625 29.90625 
Q 5.8125 33.546875 5.8125 39.890625 
Q 5.8125 47.609375 11.28125 51.796875 
Q 16.75 56 26.8125 56 
Q 31.78125 56 36.171875 55.265625 
Q 40.578125 54.546875 44.28125 53.078125 
z
" id="DejaVuSans-115"/>
     <path d="M 11.71875 12.40625 
L 22.015625 12.40625 
L 22.015625 0 
L 11.71875 0 
z
M 11.71875 51.703125 
L 22.015625 51.703125 
L 22.015625 39.3125 
L 11.71875 39.3125 
z
" id="DejaVuSans-58"/>
     <path d="M 4.890625 31.390625 
L 31.203125 31.390625 
L 31.203125 23.390625 
L 4.890625 23.390625 
z
" id="DejaVuSans-45"/>
    </defs>
    <g transform="translate(59.751441 8.76)scale(0.15 -0.15)">
     <use xlink:href="#DejaVuSans-69"/>
     <use x="63.183594" xlink:href="#DejaVuSans-109"/>
     <use x="160.595703" xlink:href="#DejaVuSans-112"/>
     <use x="224.072266" xlink:href="#DejaVuSans-108"/>
     <use x="251.855469" xlink:href="#DejaVuSans-111"/>
     <use x="313.037109" xlink:href="#DejaVuSans-121"/>
     <use x="372.216797" xlink:href="#DejaVuSans-101"/>
     <use x="433.740234" xlink:href="#DejaVuSans-100"/>
     <use x="497.216797" xlink:href="#DejaVuSans-32"/>
     <use x="529.003906" xlink:href="#DejaVuSans-102"/>
     <use x="564.208984" xlink:href="#DejaVuSans-101"/>
     <use x="625.732422" xlink:href="#DejaVuSans-109"/>
     <use x="723.144531" xlink:href="#DejaVuSans-97"/>
     <use x="784.423828" xlink:href="#DejaVuSans-108"/>
     <use x="812.207031" xlink:href="#DejaVuSans-101"/>
     <use x="873.730469" xlink:href="#DejaVuSans-32"/>
     <use x="905.517578" xlink:href="#DejaVuSans-91"/>
     <use x="944.53125" xlink:href="#DejaVuSans-37"/>
     <use x="1039.550781" xlink:href="#DejaVuSans-93"/>
     <use x="1078.564453" xlink:href="#DejaVuSans-44"/>
     <use x="1110.351562" xlink:href="#DejaVuSans-32"/>
     <use x="1142.138672" xlink:href="#DejaVuSans-97"/>
     <use x="1203.417969" xlink:href="#DejaVuSans-103"/>
     <use x="1266.894531" xlink:href="#DejaVuSans-101"/>
     <use x="1328.417969" xlink:href="#DejaVuSans-115"/>
     <use x="1380.517578" xlink:href="#DejaVuSans-58"/>
     <use x="1414.208984" xlink:href="#DejaVuSans-32"/>
     <use x="1445.996094" xlink:href="#DejaVuSans-50"/>
     <use x="1509.619141" xlink:href="#DejaVuSans-53"/>
     <use x="1573.242188" xlink:href="#DejaVuSans-45"/>
     <use x="1609.326172" xlink:href="#DejaVuSans-54"/>
     <use x="1672.949219" xlink:href="#DejaVuSans-52"/>
    </g>
   </g>
   <g id="legend_1">
    <g id="patch_70">
     <path d="M 265.59335 92.811563 
L 335.851944 92.811563 
Q 338.851944 92.811563 338.851944 89.811563 
L 338.851944 25.26 
Q 338.851944 22.26 335.851944 22.26 
L 265.59335 22.26 
Q 262.59335 22.26 262.59335 25.26 
L 262.59335 89.811563 
Q 262.59335 92.811563 265.59335 92.811563 
z
" style="fill:#ffffff;opacity:0.8;stroke:#cccccc;stroke-linejoin:miter;"/>
    </g>
    <g id="patch_71">
     <path d="M 268.59335 39.657656 
L 298.59335 39.657656 
L 298.59335 29.157656 
L 268.59335 29.157656 
z
" style="fill:#800080;opacity:0.7;stroke:#ffffff;stroke-linejoin:miter;"/>
    </g>
    <g id="text_27">
     <!-- PL -->
     <defs>
      <path d="M 19.671875 64.796875 
L 19.671875 37.40625 
L 32.078125 37.40625 
Q 38.96875 37.40625 42.71875 40.96875 
Q 46.484375 44.53125 46.484375 51.125 
Q 46.484375 57.671875 42.71875 61.234375 
Q 38.96875 64.796875 32.078125 64.796875 
z
M 9.8125 72.90625 
L 32.078125 72.90625 
Q 44.34375 72.90625 50.609375 67.359375 
Q 56.890625 61.8125 56.890625 51.125 
Q 56.890625 40.328125 50.609375 34.8125 
Q 44.34375 29.296875 32.078125 29.296875 
L 19.671875 29.296875 
L 19.671875 0 
L 9.8125 0 
z
" id="DejaVuSans-80"/>
      <path d="M 9.8125 72.90625 
L 19.671875 72.90625 
L 19.671875 8.296875 
L 55.171875 8.296875 
L 55.171875 0 
L 9.8125 0 
z
" id="DejaVuSans-76"/>
     </defs>
     <g transform="translate(310.59335 39.657656)scale(0.15 -0.15)">
      <use xlink:href="#DejaVuSans-80"/>
      <use x="60.302734" xlink:href="#DejaVuSans-76"/>
     </g>
    </g>
    <g id="patch_72">
     <path d="M 268.59335 61.674844 
L 298.59335 61.674844 
L 298.59335 51.174844 
L 268.59335 51.174844 
z
" style="fill:#ff00ff;opacity:0.7;stroke:#ffffff;stroke-linejoin:miter;"/>
    </g>
    <g id="text_28">
     <!-- LT -->
     <defs>
      <path d="M -0.296875 72.90625 
L 61.375 72.90625 
L 61.375 64.59375 
L 35.5 64.59375 
L 35.5 0 
L 25.59375 0 
L 25.59375 64.59375 
L -0.296875 64.59375 
z
" id="DejaVuSans-84"/>
     </defs>
     <g transform="translate(310.59335 61.674844)scale(0.15 -0.15)">
      <use xlink:href="#DejaVuSans-76"/>
      <use x="55.509766" xlink:href="#DejaVuSans-84"/>
     </g>
    </g>
    <g id="patch_73">
     <path d="M 268.59335 83.692031 
L 298.59335 83.692031 
L 298.59335 73.192031 
L 268.59335 73.192031 
z
" style="fill:#ff0000;opacity:0.7;stroke:#ffffff;stroke-linejoin:miter;"/>
    </g>
    <g id="text_29">
     <!-- HU -->
     <defs>
      <path d="M 9.8125 72.90625 
L 19.671875 72.90625 
L 19.671875 43.015625 
L 55.515625 43.015625 
L 55.515625 72.90625 
L 65.375 72.90625 
L 65.375 0 
L 55.515625 0 
L 55.515625 34.71875 
L 19.671875 34.71875 
L 19.671875 0 
L 9.8125 0 
z
" id="DejaVuSans-72"/>
      <path d="M 8.6875 72.90625 
L 18.609375 72.90625 
L 18.609375 28.609375 
Q 18.609375 16.890625 22.84375 11.734375 
Q 27.09375 6.59375 36.625 6.59375 
Q 46.09375 6.59375 50.34375 11.734375 
Q 54.59375 16.890625 54.59375 28.609375 
L 54.59375 72.90625 
L 64.5 72.90625 
L 64.5 27.390625 
Q 64.5 13.140625 57.4375 5.859375 
Q 50.390625 -1.421875 36.625 -1.421875 
Q 22.796875 -1.421875 15.734375 5.859375 
Q 8.6875 13.140625 8.6875 27.390625 
z
" id="DejaVuSans-85"/>
     </defs>
     <g transform="translate(310.59335 83.692031)scale(0.15 -0.15)">
      <use xlink:href="#DejaVuSans-72"/>
      <use x="75.195312" xlink:href="#DejaVuSans-85"/>
     </g>
    </g>
   </g>
  </g>
  <g id="axes_2">
   <g id="patch_74">
    <path d="M 388.568056 692.12 
L 701.28 692.12 
L 701.28 14.76 
L 388.568056 14.76 
z
" style="fill:#ffffff;"/>
   </g>
   <g id="patch_75">
    <path clip-path="url(#p8bbe1c902a)" d="M 388.568056 661.330909 
L 664.095929 661.330909 
L 664.095929 653.911851 
L 388.568056 653.911851 
z
" style="fill:#800080;opacity:0.7;stroke:#ffffff;stroke-linejoin:miter;"/>
   </g>
   <g id="patch_76">
    <path clip-path="url(#p8bbe1c902a)" d="M 388.568056 631.654677 
L 654.691058 631.654677 
L 654.691058 624.235619 
L 388.568056 624.235619 
z
" style="fill:#800080;opacity:0.7;stroke:#ffffff;stroke-linejoin:miter;"/>
   </g>
   <g id="patch_77">
    <path clip-path="url(#p8bbe1c902a)" d="M 388.568056 601.978445 
L 646.157009 601.978445 
L 646.157009 594.559387 
L 388.568056 594.559387 
z
" style="fill:#800080;opacity:0.7;stroke:#ffffff;stroke-linejoin:miter;"/>
   </g>
   <g id="patch_78">
    <path clip-path="url(#p8bbe1c902a)" d="M 388.568056 572.302212 
L 636.665056 572.302212 
L 636.665056 564.883154 
L 388.568056 564.883154 
z
" style="fill:#800080;opacity:0.7;stroke:#ffffff;stroke-linejoin:miter;"/>
   </g>
   <g id="patch_79">
    <path clip-path="url(#p8bbe1c902a)" d="M 388.568056 542.62598 
L 627.782679 542.62598 
L 627.782679 535.206922 
L 388.568056 535.206922 
z
" style="fill:#800080;opacity:0.7;stroke:#ffffff;stroke-linejoin:miter;"/>
   </g>
   <g id="patch_80">
    <path clip-path="url(#p8bbe1c902a)" d="M 388.568056 512.949748 
L 625.953954 512.949748 
L 625.953954 505.53069 
L 388.568056 505.53069 
z
" style="fill:#800080;opacity:0.7;stroke:#ffffff;stroke-linejoin:miter;"/>
   </g>
   <g id="patch_81">
    <path clip-path="url(#p8bbe1c902a)" d="M 388.568056 483.273516 
L 626.128118 483.273516 
L 626.128118 475.854458 
L 388.568056 475.854458 
z
" style="fill:#800080;opacity:0.7;stroke:#ffffff;stroke-linejoin:miter;"/>
   </g>
   <g id="patch_82">
    <path clip-path="url(#p8bbe1c902a)" d="M 388.568056 453.597284 
L 631.614293 453.597284 
L 631.614293 446.178226 
L 388.568056 446.178226 
z
" style="fill:#800080;opacity:0.7;stroke:#ffffff;stroke-linejoin:miter;"/>
   </g>
   <g id="patch_83">
    <path clip-path="url(#p8bbe1c902a)" d="M 388.568056 423.921051 
L 637.535878 423.921051 
L 637.535878 416.501993 
L 388.568056 416.501993 
z
" style="fill:#800080;opacity:0.7;stroke:#ffffff;stroke-linejoin:miter;"/>
   </g>
   <g id="patch_84">
    <path clip-path="url(#p8bbe1c902a)" d="M 388.568056 394.244819 
L 645.808681 394.244819 
L 645.808681 386.825761 
L 388.568056 386.825761 
z
" style="fill:#800080;opacity:0.7;stroke:#ffffff;stroke-linejoin:miter;"/>
   </g>
   <g id="patch_85">
    <path clip-path="url(#p8bbe1c902a)" d="M 388.568056 364.568587 
L 653.733155 364.568587 
L 653.733155 357.149529 
L 388.568056 357.149529 
z
" style="fill:#800080;opacity:0.7;stroke:#ffffff;stroke-linejoin:miter;"/>
   </g>
   <g id="patch_86">
    <path clip-path="url(#p8bbe1c902a)" d="M 388.568056 334.892355 
L 650.249869 334.892355 
L 650.249869 327.473297 
L 388.568056 327.473297 
z
" style="fill:#800080;opacity:0.7;stroke:#ffffff;stroke-linejoin:miter;"/>
   </g>
   <g id="patch_87">
    <path clip-path="url(#p8bbe1c902a)" d="M 388.568056 305.216123 
L 646.505338 305.216123 
L 646.505338 297.797065 
L 388.568056 297.797065 
z
" style="fill:#800080;opacity:0.7;stroke:#ffffff;stroke-linejoin:miter;"/>
   </g>
   <g id="patch_88">
    <path clip-path="url(#p8bbe1c902a)" d="M 388.568056 275.53989 
L 648.856555 275.53989 
L 648.856555 268.120832 
L 388.568056 268.120832 
z
" style="fill:#800080;opacity:0.7;stroke:#ffffff;stroke-linejoin:miter;"/>
   </g>
   <g id="patch_89">
    <path clip-path="url(#p8bbe1c902a)" d="M 388.568056 245.863658 
L 647.376159 245.863658 
L 647.376159 238.4446 
L 388.568056 238.4446 
z
" style="fill:#800080;opacity:0.7;stroke:#ffffff;stroke-linejoin:miter;"/>
   </g>
   <g id="patch_90">
    <path clip-path="url(#p8bbe1c902a)" d="M 388.568056 216.187426 
L 647.114913 216.187426 
L 647.114913 208.768368 
L 388.568056 208.768368 
z
" style="fill:#800080;opacity:0.7;stroke:#ffffff;stroke-linejoin:miter;"/>
   </g>
   <g id="patch_91">
    <path clip-path="url(#p8bbe1c902a)" d="M 388.568056 186.511194 
L 650.68528 186.511194 
L 650.68528 179.092136 
L 388.568056 179.092136 
z
" style="fill:#800080;opacity:0.7;stroke:#ffffff;stroke-linejoin:miter;"/>
   </g>
   <g id="patch_92">
    <path clip-path="url(#p8bbe1c902a)" d="M 388.568056 156.834962 
L 653.646073 156.834962 
L 653.646073 149.415904 
L 388.568056 149.415904 
z
" style="fill:#800080;opacity:0.7;stroke:#ffffff;stroke-linejoin:miter;"/>
   </g>
   <g id="patch_93">
    <path clip-path="url(#p8bbe1c902a)" d="M 388.568056 127.158729 
L 658.43559 127.158729 
L 658.43559 119.739671 
L 388.568056 119.739671 
z
" style="fill:#800080;opacity:0.7;stroke:#ffffff;stroke-linejoin:miter;"/>
   </g>
   <g id="patch_94">
    <path clip-path="url(#p8bbe1c902a)" d="M 388.568056 97.482497 
L 663.31219 97.482497 
L 663.31219 90.063439 
L 388.568056 90.063439 
z
" style="fill:#800080;opacity:0.7;stroke:#ffffff;stroke-linejoin:miter;"/>
   </g>
   <g id="patch_95">
    <path clip-path="url(#p8bbe1c902a)" d="M 388.568056 67.806265 
L 667.114776 67.806265 
L 667.114776 60.387207 
L 388.568056 60.387207 
z
" style="fill:#800080;opacity:0.7;stroke:#ffffff;stroke-linejoin:miter;"/>
   </g>
   <g id="patch_96">
    <path clip-path="url(#p8bbe1c902a)" d="M 388.568056 653.911851 
L 652.775251 653.911851 
L 652.775251 646.492793 
L 388.568056 646.492793 
z
" style="fill:#ff00ff;opacity:0.7;stroke:#ffffff;stroke-linejoin:miter;"/>
   </g>
   <g id="patch_97">
    <path clip-path="url(#p8bbe1c902a)" d="M 388.568056 624.235619 
L 640.757917 624.235619 
L 640.757917 616.816561 
L 388.568056 616.816561 
z
" style="fill:#ff00ff;opacity:0.7;stroke:#ffffff;stroke-linejoin:miter;"/>
   </g>
   <g id="patch_98">
    <path clip-path="url(#p8bbe1c902a)" d="M 388.568056 594.559387 
L 633.617182 594.559387 
L 633.617182 587.140329 
L 388.568056 587.140329 
z
" style="fill:#ff00ff;opacity:0.7;stroke:#ffffff;stroke-linejoin:miter;"/>
   </g>
   <g id="patch_99">
    <path clip-path="url(#p8bbe1c902a)" d="M 388.568056 564.883154 
L 633.96551 564.883154 
L 633.96551 557.464096 
L 388.568056 557.464096 
z
" style="fill:#ff00ff;opacity:0.7;stroke:#ffffff;stroke-linejoin:miter;"/>
   </g>
   <g id="patch_100">
    <path clip-path="url(#p8bbe1c902a)" d="M 388.568056 535.206922 
L 650.424034 535.206922 
L 650.424034 527.787864 
L 388.568056 527.787864 
z
" style="fill:#ff00ff;opacity:0.7;stroke:#ffffff;stroke-linejoin:miter;"/>
   </g>
   <g id="patch_101">
    <path clip-path="url(#p8bbe1c902a)" d="M 388.568056 505.53069 
L 654.429812 505.53069 
L 654.429812 498.111632 
L 388.568056 498.111632 
z
" style="fill:#ff00ff;opacity:0.7;stroke:#ffffff;stroke-linejoin:miter;"/>
   </g>
   <g id="patch_102">
    <path clip-path="url(#p8bbe1c902a)" d="M 388.568056 475.854458 
L 661.831793 475.854458 
L 661.831793 468.4354 
L 388.568056 468.4354 
z
" style="fill:#ff00ff;opacity:0.7;stroke:#ffffff;stroke-linejoin:miter;"/>
   </g>
   <g id="patch_103">
    <path clip-path="url(#p8bbe1c902a)" d="M 388.568056 446.178226 
L 667.40505 446.178226 
L 667.40505 438.759168 
L 388.568056 438.759168 
z
" style="fill:#ff00ff;opacity:0.7;stroke:#ffffff;stroke-linejoin:miter;"/>
   </g>
   <g id="patch_104">
    <path clip-path="url(#p8bbe1c902a)" d="M 388.568056 416.501993 
L 667.927543 416.501993 
L 667.927543 409.082935 
L 388.568056 409.082935 
z
" style="fill:#ff00ff;opacity:0.7;stroke:#ffffff;stroke-linejoin:miter;"/>
   </g>
   <g id="patch_105">
    <path clip-path="url(#p8bbe1c902a)" d="M 388.568056 386.825761 
L 670.365842 386.825761 
L 670.365842 379.406703 
L 388.568056 379.406703 
z
" style="fill:#ff00ff;opacity:0.7;stroke:#ffffff;stroke-linejoin:miter;"/>
   </g>
   <g id="patch_106">
    <path clip-path="url(#p8bbe1c902a)" d="M 388.568056 357.149529 
L 661.570547 357.149529 
L 661.570547 349.730471 
L 388.568056 349.730471 
z
" style="fill:#ff00ff;opacity:0.7;stroke:#ffffff;stroke-linejoin:miter;"/>
   </g>
   <g id="patch_107">
    <path clip-path="url(#p8bbe1c902a)" d="M 388.568056 327.473297 
L 630.308061 327.473297 
L 630.308061 320.054239 
L 388.568056 320.054239 
z
" style="fill:#ff00ff;opacity:0.7;stroke:#ffffff;stroke-linejoin:miter;"/>
   </g>
   <g id="patch_108">
    <path clip-path="url(#p8bbe1c902a)" d="M 388.568056 297.797065 
L 613.762455 297.797065 
L 613.762455 290.378007 
L 388.568056 290.378007 
z
" style="fill:#ff00ff;opacity:0.7;stroke:#ffffff;stroke-linejoin:miter;"/>
   </g>
   <g id="patch_109">
    <path clip-path="url(#p8bbe1c902a)" d="M 388.568056 268.120832 
L 628.218089 268.120832 
L 628.218089 260.701774 
L 388.568056 260.701774 
z
" style="fill:#ff00ff;opacity:0.7;stroke:#ffffff;stroke-linejoin:miter;"/>
   </g>
   <g id="patch_110">
    <path clip-path="url(#p8bbe1c902a)" d="M 388.568056 238.4446 
L 636.752139 238.4446 
L 636.752139 231.025542 
L 388.568056 231.025542 
z
" style="fill:#ff00ff;opacity:0.7;stroke:#ffffff;stroke-linejoin:miter;"/>
   </g>
   <g id="patch_111">
    <path clip-path="url(#p8bbe1c902a)" d="M 388.568056 208.768368 
L 639.800013 208.768368 
L 639.800013 201.34931 
L 388.568056 201.34931 
z
" style="fill:#ff00ff;opacity:0.7;stroke:#ffffff;stroke-linejoin:miter;"/>
   </g>
   <g id="patch_112">
    <path clip-path="url(#p8bbe1c902a)" d="M 388.568056 179.092136 
L 640.932081 179.092136 
L 640.932081 171.673078 
L 388.568056 171.673078 
z
" style="fill:#ff00ff;opacity:0.7;stroke:#ffffff;stroke-linejoin:miter;"/>
   </g>
   <g id="patch_113">
    <path clip-path="url(#p8bbe1c902a)" d="M 388.568056 149.415904 
L 645.199106 149.415904 
L 645.199106 141.996846 
L 388.568056 141.996846 
z
" style="fill:#ff00ff;opacity:0.7;stroke:#ffffff;stroke-linejoin:miter;"/>
   </g>
   <g id="patch_114">
    <path clip-path="url(#p8bbe1c902a)" d="M 388.568056 119.739671 
L 650.249869 119.739671 
L 650.249869 112.320613 
L 388.568056 112.320613 
z
" style="fill:#ff00ff;opacity:0.7;stroke:#ffffff;stroke-linejoin:miter;"/>
   </g>
   <g id="patch_115">
    <path clip-path="url(#p8bbe1c902a)" d="M 388.568056 90.063439 
L 653.55899 90.063439 
L 653.55899 82.644381 
L 388.568056 82.644381 
z
" style="fill:#ff00ff;opacity:0.7;stroke:#ffffff;stroke-linejoin:miter;"/>
   </g>
   <g id="patch_116">
    <path clip-path="url(#p8bbe1c902a)" d="M 388.568056 60.387207 
L 661.773738 60.387207 
L 661.773738 52.968149 
L 388.568056 52.968149 
z
" style="fill:#ff00ff;opacity:0.7;stroke:#ffffff;stroke-linejoin:miter;"/>
   </g>
   <g id="patch_117">
    <path clip-path="url(#p8bbe1c902a)" d="M 388.568056 646.492793 
L 648.769473 646.492793 
L 648.769473 639.073735 
L 388.568056 639.073735 
z
" style="fill:#ff0000;opacity:0.7;stroke:#ffffff;stroke-linejoin:miter;"/>
   </g>
   <g id="patch_118">
    <path clip-path="url(#p8bbe1c902a)" d="M 388.568056 616.816561 
L 646.331173 616.816561 
L 646.331173 609.397503 
L 388.568056 609.397503 
z
" style="fill:#ff0000;opacity:0.7;stroke:#ffffff;stroke-linejoin:miter;"/>
   </g>
   <g id="patch_119">
    <path clip-path="url(#p8bbe1c902a)" d="M 388.568056 587.140329 
L 661.831793 587.140329 
L 661.831793 579.721271 
L 388.568056 579.721271 
z
" style="fill:#ff0000;opacity:0.7;stroke:#ffffff;stroke-linejoin:miter;"/>
   </g>
   <g id="patch_120">
    <path clip-path="url(#p8bbe1c902a)" d="M 388.568056 557.464096 
L 661.657629 557.464096 
L 661.657629 550.045038 
L 388.568056 550.045038 
z
" style="fill:#ff0000;opacity:0.7;stroke:#ffffff;stroke-linejoin:miter;"/>
   </g>
   <g id="patch_121">
    <path clip-path="url(#p8bbe1c902a)" d="M 388.568056 527.787864 
L 662.615532 527.787864 
L 662.615532 520.368806 
L 388.568056 520.368806 
z
" style="fill:#ff0000;opacity:0.7;stroke:#ffffff;stroke-linejoin:miter;"/>
   </g>
   <g id="patch_122">
    <path clip-path="url(#p8bbe1c902a)" d="M 388.568056 498.111632 
L 659.915986 498.111632 
L 659.915986 490.692574 
L 388.568056 490.692574 
z
" style="fill:#ff0000;opacity:0.7;stroke:#ffffff;stroke-linejoin:miter;"/>
   </g>
   <g id="patch_123">
    <path clip-path="url(#p8bbe1c902a)" d="M 388.568056 468.4354 
L 658.696836 468.4354 
L 658.696836 461.016342 
L 388.568056 461.016342 
z
" style="fill:#ff0000;opacity:0.7;stroke:#ffffff;stroke-linejoin:miter;"/>
   </g>
   <g id="patch_124">
    <path clip-path="url(#p8bbe1c902a)" d="M 388.568056 438.759168 
L 656.432701 438.759168 
L 656.432701 431.34011 
L 388.568056 431.34011 
z
" style="fill:#ff0000;opacity:0.7;stroke:#ffffff;stroke-linejoin:miter;"/>
   </g>
   <g id="patch_125">
    <path clip-path="url(#p8bbe1c902a)" d="M 388.568056 409.082935 
L 658.609754 409.082935 
L 658.609754 401.663877 
L 388.568056 401.663877 
z
" style="fill:#ff0000;opacity:0.7;stroke:#ffffff;stroke-linejoin:miter;"/>
   </g>
   <g id="patch_126">
    <path clip-path="url(#p8bbe1c902a)" d="M 388.568056 379.406703 
L 655.474797 379.406703 
L 655.474797 371.987645 
L 388.568056 371.987645 
z
" style="fill:#ff0000;opacity:0.7;stroke:#ffffff;stroke-linejoin:miter;"/>
   </g>
   <g id="patch_127">
    <path clip-path="url(#p8bbe1c902a)" d="M 388.568056 349.730471 
L 649.291966 349.730471 
L 649.291966 342.311413 
L 388.568056 342.311413 
z
" style="fill:#ff0000;opacity:0.7;stroke:#ffffff;stroke-linejoin:miter;"/>
   </g>
   <g id="patch_128">
    <path clip-path="url(#p8bbe1c902a)" d="M 388.568056 320.054239 
L 641.454574 320.054239 
L 641.454574 312.635181 
L 388.568056 312.635181 
z
" style="fill:#ff0000;opacity:0.7;stroke:#ffffff;stroke-linejoin:miter;"/>
   </g>
   <g id="patch_129">
    <path clip-path="url(#p8bbe1c902a)" d="M 388.568056 290.378007 
L 636.316728 290.378007 
L 636.316728 282.958949 
L 388.568056 282.958949 
z
" style="fill:#ff0000;opacity:0.7;stroke:#ffffff;stroke-linejoin:miter;"/>
   </g>
   <g id="patch_130">
    <path clip-path="url(#p8bbe1c902a)" d="M 388.568056 260.701774 
L 637.535878 260.701774 
L 637.535878 253.282716 
L 388.568056 253.282716 
z
" style="fill:#ff0000;opacity:0.7;stroke:#ffffff;stroke-linejoin:miter;"/>
   </g>
   <g id="patch_131">
    <path clip-path="url(#p8bbe1c902a)" d="M 388.568056 231.025542 
L 640.322506 231.025542 
L 640.322506 223.606484 
L 388.568056 223.606484 
z
" style="fill:#ff0000;opacity:0.7;stroke:#ffffff;stroke-linejoin:miter;"/>
   </g>
   <g id="patch_132">
    <path clip-path="url(#p8bbe1c902a)" d="M 388.568056 201.34931 
L 647.201995 201.34931 
L 647.201995 193.930252 
L 388.568056 193.930252 
z
" style="fill:#ff0000;opacity:0.7;stroke:#ffffff;stroke-linejoin:miter;"/>
   </g>
   <g id="patch_133">
    <path clip-path="url(#p8bbe1c902a)" d="M 388.568056 171.673078 
L 660.87389 171.673078 
L 660.87389 164.25402 
L 388.568056 164.25402 
z
" style="fill:#ff0000;opacity:0.7;stroke:#ffffff;stroke-linejoin:miter;"/>
   </g>
   <g id="patch_134">
    <path clip-path="url(#p8bbe1c902a)" d="M 388.568056 141.996846 
L 669.146692 141.996846 
L 669.146692 134.577788 
L 388.568056 134.577788 
z
" style="fill:#ff0000;opacity:0.7;stroke:#ffffff;stroke-linejoin:miter;"/>
   </g>
   <g id="patch_135">
    <path clip-path="url(#p8bbe1c902a)" d="M 388.568056 112.320613 
L 677.332413 112.320613 
L 677.332413 104.901555 
L 388.568056 104.901555 
z
" style="fill:#ff0000;opacity:0.7;stroke:#ffffff;stroke-linejoin:miter;"/>
   </g>
   <g id="patch_136">
    <path clip-path="url(#p8bbe1c902a)" d="M 388.568056 82.644381 
L 684.12482 82.644381 
L 684.12482 75.225323 
L 388.568056 75.225323 
z
" style="fill:#ff0000;opacity:0.7;stroke:#ffffff;stroke-linejoin:miter;"/>
   </g>
   <g id="patch_137">
    <path clip-path="url(#p8bbe1c902a)" d="M 388.568056 52.968149 
L 686.388955 52.968149 
L 686.388955 45.549091 
L 388.568056 45.549091 
z
" style="fill:#ff0000;opacity:0.7;stroke:#ffffff;stroke-linejoin:miter;"/>
   </g>
   <g id="matplotlib.axis_3">
    <g id="xtick_5">
     <g id="line2d_5">
      <g>
       <use style="stroke:#000000;stroke-width:0.8;" x="388.568056" xlink:href="#m52b1d8767c" y="692.12"/>
      </g>
     </g>
     <g id="text_30">
      <!-- 0 -->
      <g transform="translate(384.114306 709.757812)scale(0.14 -0.14)">
       <use xlink:href="#DejaVuSans-48"/>
      </g>
     </g>
    </g>
    <g id="xtick_6">
     <g id="line2d_6">
      <g>
       <use style="stroke:#000000;stroke-width:0.8;" x="458.233764" xlink:href="#m52b1d8767c" y="692.12"/>
      </g>
     </g>
     <g id="text_31">
      <!-- 20 -->
      <g transform="translate(449.326264 709.757812)scale(0.14 -0.14)">
       <use xlink:href="#DejaVuSans-50"/>
       <use x="63.623047" xlink:href="#DejaVuSans-48"/>
      </g>
     </g>
    </g>
    <g id="xtick_7">
     <g id="line2d_7">
      <g>
       <use style="stroke:#000000;stroke-width:0.8;" x="527.899471" xlink:href="#m52b1d8767c" y="692.12"/>
      </g>
     </g>
     <g id="text_32">
      <!-- 40 -->
      <g transform="translate(518.991971 709.757812)scale(0.14 -0.14)">
       <use xlink:href="#DejaVuSans-52"/>
       <use x="63.623047" xlink:href="#DejaVuSans-48"/>
      </g>
     </g>
    </g>
    <g id="xtick_8">
     <g id="line2d_8">
      <g>
       <use style="stroke:#000000;stroke-width:0.8;" x="597.565178" xlink:href="#m52b1d8767c" y="692.12"/>
      </g>
     </g>
     <g id="text_33">
      <!-- 60 -->
      <g transform="translate(588.657678 709.757812)scale(0.14 -0.14)">
       <use xlink:href="#DejaVuSans-54"/>
       <use x="63.623047" xlink:href="#DejaVuSans-48"/>
      </g>
     </g>
    </g>
    <g id="xtick_9">
     <g id="line2d_9">
      <g>
       <use style="stroke:#000000;stroke-width:0.8;" x="667.230886" xlink:href="#m52b1d8767c" y="692.12"/>
      </g>
     </g>
     <g id="text_34">
      <!-- 80 -->
      <g transform="translate(658.323386 709.757812)scale(0.14 -0.14)">
       <use xlink:href="#DejaVuSans-56"/>
       <use x="63.623047" xlink:href="#DejaVuSans-48"/>
      </g>
     </g>
    </g>
   </g>
   <g id="matplotlib.axis_4"/>
   <g id="patch_138">
    <path d="M 388.568056 692.12 
L 388.568056 14.76 
" style="fill:none;stroke:#000000;stroke-linecap:square;stroke-linejoin:miter;stroke-width:0.8;"/>
   </g>
   <g id="patch_139">
    <path d="M 701.28 692.12 
L 701.28 14.76 
" style="fill:none;stroke:#000000;stroke-linecap:square;stroke-linejoin:miter;stroke-width:0.8;"/>
   </g>
   <g id="patch_140">
    <path d="M 388.568056 692.12 
L 701.28 692.12 
" style="fill:none;stroke:#000000;stroke-linecap:square;stroke-linejoin:miter;stroke-width:0.8;"/>
   </g>
   <g id="patch_141">
    <path d="M 388.568056 14.76 
L 701.28 14.76 
" style="fill:none;stroke:#000000;stroke-linecap:square;stroke-linejoin:miter;stroke-width:0.8;"/>
   </g>
   <g id="text_35">
    <!-- Employed male [%], ages: 25-64 -->
    <g transform="translate(421.934575 8.76)scale(0.15 -0.15)">
     <use xlink:href="#DejaVuSans-69"/>
     <use x="63.183594" xlink:href="#DejaVuSans-109"/>
     <use x="160.595703" xlink:href="#DejaVuSans-112"/>
     <use x="224.072266" xlink:href="#DejaVuSans-108"/>
     <use x="251.855469" xlink:href="#DejaVuSans-111"/>
     <use x="313.037109" xlink:href="#DejaVuSans-121"/>
     <use x="372.216797" xlink:href="#DejaVuSans-101"/>
     <use x="433.740234" xlink:href="#DejaVuSans-100"/>
     <use x="497.216797" xlink:href="#DejaVuSans-32"/>
     <use x="529.003906" xlink:href="#DejaVuSans-109"/>
     <use x="626.416016" xlink:href="#DejaVuSans-97"/>
     <use x="687.695312" xlink:href="#DejaVuSans-108"/>
     <use x="715.478516" xlink:href="#DejaVuSans-101"/>
     <use x="777.001953" xlink:href="#DejaVuSans-32"/>
     <use x="808.789062" xlink:href="#DejaVuSans-91"/>
     <use x="847.802734" xlink:href="#DejaVuSans-37"/>
     <use x="942.822266" xlink:href="#DejaVuSans-93"/>
     <use x="981.835938" xlink:href="#DejaVuSans-44"/>
     <use x="1013.623047" xlink:href="#DejaVuSans-32"/>
     <use x="1045.410156" xlink:href="#DejaVuSans-97"/>
     <use x="1106.689453" xlink:href="#DejaVuSans-103"/>
     <use x="1170.166016" xlink:href="#DejaVuSans-101"/>
     <use x="1231.689453" xlink:href="#DejaVuSans-115"/>
     <use x="1283.789062" xlink:href="#DejaVuSans-58"/>
     <use x="1317.480469" xlink:href="#DejaVuSans-32"/>
     <use x="1349.267578" xlink:href="#DejaVuSans-50"/>
     <use x="1412.890625" xlink:href="#DejaVuSans-53"/>
     <use x="1476.513672" xlink:href="#DejaVuSans-45"/>
     <use x="1512.597656" xlink:href="#DejaVuSans-54"/>
     <use x="1576.220703" xlink:href="#DejaVuSans-52"/>
    </g>
   </g>
  </g>
 </g>
 <defs>
  <clipPath id="p2099452b27">
   <rect height="677.36" width="312.711944" x="33.64" y="14.76"/>
  </clipPath>
  <clipPath id="p8bbe1c902a">
   <rect height="677.36" width="312.711944" x="388.568056" y="14.76"/>
  </clipPath>
 </defs>
</svg>
