<?xml version="1.0" encoding="utf-8" standalone="no"?>
<!DOCTYPE svg PUBLIC "-//W3C//DTD SVG 1.1//EN"
  "http://www.w3.org/Graphics/SVG/1.1/DTD/svg11.dtd">
<!-- Created with matplotlib (https://matplotlib.org/) -->
<svg height="720pt" version="1.1" viewBox="0 0 720 720" width="720pt" xmlns="http://www.w3.org/2000/svg" xmlns:xlink="http://www.w3.org/1999/xlink">
 <defs>
  <style type="text/css">
*{stroke-linecap:butt;stroke-linejoin:round;}
  </style>
 </defs>
 <g id="figure_1">
  <g id="patch_1">
   <path d="M 0 720 
L 720 720 
L 720 0 
L 0 0 
z
" style="fill:#ffffff;"/>
  </g>
  <g id="axes_1">
   <g id="patch_2">
    <path d="M 33.64 692.12 
L 346.351944 692.12 
L 346.351944 14.76 
L 33.64 14.76 
z
" style="fill:#ffffff;"/>
   </g>
   <g id="patch_3">
    <path clip-path="url(#pfdcaa4dd9c)" d="z
" style="fill:#800080;opacity:0.7;stroke:#ffffff;stroke-linejoin:miter;"/>
   </g>
   <g id="patch_4">
    <path clip-path="url(#pfdcaa4dd9c)" d="M 346.351944 638.802306 
L 54.711801 638.802306 
L 54.711801 631.292772 
L 346.351944 631.292772 
z
" style="fill:#800080;opacity:0.7;stroke:#ffffff;stroke-linejoin:miter;"/>
   </g>
   <g id="patch_5">
    <path clip-path="url(#pfdcaa4dd9c)" d="M 346.351944 608.764169 
L 54.654572 608.764169 
L 54.654572 601.254634 
L 346.351944 601.254634 
z
" style="fill:#800080;opacity:0.7;stroke:#ffffff;stroke-linejoin:miter;"/>
   </g>
   <g id="patch_6">
    <path clip-path="url(#pfdcaa4dd9c)" d="M 346.351944 578.726031 
L 53.281071 578.726031 
L 53.281071 571.216497 
L 346.351944 571.216497 
z
" style="fill:#800080;opacity:0.7;stroke:#ffffff;stroke-linejoin:miter;"/>
   </g>
   <g id="patch_7">
    <path clip-path="url(#pfdcaa4dd9c)" d="M 346.351944 548.687894 
L 52.851852 548.687894 
L 52.851852 541.178359 
L 346.351944 541.178359 
z
" style="fill:#800080;opacity:0.7;stroke:#ffffff;stroke-linejoin:miter;"/>
   </g>
   <g id="patch_8">
    <path clip-path="url(#pfdcaa4dd9c)" d="M 346.351944 518.649756 
L 53.452758 518.649756 
L 53.452758 511.140222 
L 346.351944 511.140222 
z
" style="fill:#800080;opacity:0.7;stroke:#ffffff;stroke-linejoin:miter;"/>
   </g>
   <g id="patch_9">
    <path clip-path="url(#pfdcaa4dd9c)" d="M 346.351944 488.611619 
L 52.250945 488.611619 
L 52.250945 481.102084 
L 346.351944 481.102084 
z
" style="fill:#800080;opacity:0.7;stroke:#ffffff;stroke-linejoin:miter;"/>
   </g>
   <g id="patch_10">
    <path clip-path="url(#pfdcaa4dd9c)" d="M 346.351944 458.573481 
L 49.589786 458.573481 
L 49.589786 451.063947 
L 346.351944 451.063947 
z
" style="fill:#800080;opacity:0.7;stroke:#ffffff;stroke-linejoin:miter;"/>
   </g>
   <g id="patch_11">
    <path clip-path="url(#pfdcaa4dd9c)" d="M 346.351944 428.535344 
L 50.534068 428.535344 
L 50.534068 421.025809 
L 346.351944 421.025809 
z
" style="fill:#800080;opacity:0.7;stroke:#ffffff;stroke-linejoin:miter;"/>
   </g>
   <g id="patch_12">
    <path clip-path="url(#pfdcaa4dd9c)" d="M 346.351944 398.497206 
L 50.791599 398.497206 
L 50.791599 390.987672 
L 346.351944 390.987672 
z
" style="fill:#800080;opacity:0.7;stroke:#ffffff;stroke-linejoin:miter;"/>
   </g>
   <g id="patch_13">
    <path clip-path="url(#pfdcaa4dd9c)" d="M 346.351944 368.459069 
L 63.238956 368.459069 
L 63.238956 360.949534 
L 346.351944 360.949534 
z
" style="fill:#800080;opacity:0.7;stroke:#ffffff;stroke-linejoin:miter;"/>
   </g>
   <g id="patch_14">
    <path clip-path="url(#pfdcaa4dd9c)" d="M 346.351944 338.420931 
L 64.526614 338.420931 
L 64.526614 330.911397 
L 346.351944 330.911397 
z
" style="fill:#800080;opacity:0.7;stroke:#ffffff;stroke-linejoin:miter;"/>
   </g>
   <g id="patch_15">
    <path clip-path="url(#pfdcaa4dd9c)" d="M 346.351944 308.382794 
L 65.299209 308.382794 
L 65.299209 300.873259 
L 346.351944 300.873259 
z
" style="fill:#800080;opacity:0.7;stroke:#ffffff;stroke-linejoin:miter;"/>
   </g>
   <g id="patch_16">
    <path clip-path="url(#pfdcaa4dd9c)" d="M 346.351944 278.344656 
L 72.080872 278.344656 
L 72.080872 270.835122 
L 346.351944 270.835122 
z
" style="fill:#800080;opacity:0.7;stroke:#ffffff;stroke-linejoin:miter;"/>
   </g>
   <g id="patch_17">
    <path clip-path="url(#pfdcaa4dd9c)" d="M 346.351944 248.306519 
L 72.424247 248.306519 
L 72.424247 240.796984 
L 346.351944 240.796984 
z
" style="fill:#800080;opacity:0.7;stroke:#ffffff;stroke-linejoin:miter;"/>
   </g>
   <g id="patch_18">
    <path clip-path="url(#pfdcaa4dd9c)" d="M 346.351944 218.268381 
L 67.273617 218.268381 
L 67.273617 210.758847 
L 346.351944 210.758847 
z
" style="fill:#800080;opacity:0.7;stroke:#ffffff;stroke-linejoin:miter;"/>
   </g>
   <g id="patch_19">
    <path clip-path="url(#pfdcaa4dd9c)" d="M 346.351944 188.230244 
L 66.501022 188.230244 
L 66.501022 180.72071 
L 346.351944 180.72071 
z
" style="fill:#800080;opacity:0.7;stroke:#ffffff;stroke-linejoin:miter;"/>
   </g>
   <g id="patch_20">
    <path clip-path="url(#pfdcaa4dd9c)" d="M 346.351944 158.192106 
L 65.814272 158.192106 
L 65.814272 150.682572 
L 346.351944 150.682572 
z
" style="fill:#800080;opacity:0.7;stroke:#ffffff;stroke-linejoin:miter;"/>
   </g>
   <g id="patch_21">
    <path clip-path="url(#pfdcaa4dd9c)" d="M 346.351944 128.153969 
L 65.470896 128.153969 
L 65.470896 120.644435 
L 346.351944 120.644435 
z
" style="fill:#800080;opacity:0.7;stroke:#ffffff;stroke-linejoin:miter;"/>
   </g>
   <g id="patch_22">
    <path clip-path="url(#pfdcaa4dd9c)" d="M 346.351944 98.115831 
L 64.955833 98.115831 
L 64.955833 90.606297 
L 346.351944 90.606297 
z
" style="fill:#800080;opacity:0.7;stroke:#ffffff;stroke-linejoin:miter;"/>
   </g>
   <g id="patch_23">
    <path clip-path="url(#pfdcaa4dd9c)" d="M 346.351944 68.077694 
L 62.609435 68.077694 
L 62.609435 60.56816 
L 346.351944 60.56816 
z
" style="fill:#800080;opacity:0.7;stroke:#ffffff;stroke-linejoin:miter;"/>
   </g>
   <g id="patch_24">
    <path clip-path="url(#pfdcaa4dd9c)" d="M 346.351944 661.330909 
L 68.561274 661.330909 
L 68.561274 653.821375 
L 346.351944 653.821375 
z
" style="fill:#ff00ff;opacity:0.7;stroke:#ffffff;stroke-linejoin:miter;"/>
   </g>
   <g id="patch_25">
    <path clip-path="url(#pfdcaa4dd9c)" d="M 346.351944 631.292772 
L 63.067269 631.292772 
L 63.067269 623.783237 
L 346.351944 623.783237 
z
" style="fill:#ff00ff;opacity:0.7;stroke:#ffffff;stroke-linejoin:miter;"/>
   </g>
   <g id="patch_26">
    <path clip-path="url(#pfdcaa4dd9c)" d="M 346.351944 601.254634 
L 69.162181 601.254634 
L 69.162181 593.7451 
L 346.351944 593.7451 
z
" style="fill:#ff00ff;opacity:0.7;stroke:#ffffff;stroke-linejoin:miter;"/>
   </g>
   <g id="patch_27">
    <path clip-path="url(#pfdcaa4dd9c)" d="M 346.351944 571.216497 
L 64.526614 571.216497 
L 64.526614 563.706962 
L 346.351944 563.706962 
z
" style="fill:#ff00ff;opacity:0.7;stroke:#ffffff;stroke-linejoin:miter;"/>
   </g>
   <g id="patch_28">
    <path clip-path="url(#pfdcaa4dd9c)" d="M 346.351944 541.178359 
L 64.44077 541.178359 
L 64.44077 533.668825 
L 346.351944 533.668825 
z
" style="fill:#ff00ff;opacity:0.7;stroke:#ffffff;stroke-linejoin:miter;"/>
   </g>
   <g id="patch_29">
    <path clip-path="url(#pfdcaa4dd9c)" d="M 346.351944 511.140222 
L 63.839863 511.140222 
L 63.839863 503.630687 
L 346.351944 503.630687 
z
" style="fill:#ff00ff;opacity:0.7;stroke:#ffffff;stroke-linejoin:miter;"/>
   </g>
   <g id="patch_30">
    <path clip-path="url(#pfdcaa4dd9c)" d="M 346.351944 481.102084 
L 64.698302 481.102084 
L 64.698302 473.59255 
L 346.351944 473.59255 
z
" style="fill:#ff00ff;opacity:0.7;stroke:#ffffff;stroke-linejoin:miter;"/>
   </g>
   <g id="patch_31">
    <path clip-path="url(#pfdcaa4dd9c)" d="M 346.351944 451.063947 
L 62.294674 451.063947 
L 62.294674 443.554412 
L 346.351944 443.554412 
z
" style="fill:#ff00ff;opacity:0.7;stroke:#ffffff;stroke-linejoin:miter;"/>
   </g>
   <g id="patch_32">
    <path clip-path="url(#pfdcaa4dd9c)" d="M 346.351944 421.025809 
L 58.86092 421.025809 
L 58.86092 413.516275 
L 346.351944 413.516275 
z
" style="fill:#ff00ff;opacity:0.7;stroke:#ffffff;stroke-linejoin:miter;"/>
   </g>
   <g id="patch_33">
    <path clip-path="url(#pfdcaa4dd9c)" d="M 346.351944 390.987672 
L 54.053665 390.987672 
L 54.053665 383.478137 
L 346.351944 383.478137 
z
" style="fill:#ff00ff;opacity:0.7;stroke:#ffffff;stroke-linejoin:miter;"/>
   </g>
   <g id="patch_34">
    <path clip-path="url(#pfdcaa4dd9c)" d="M 346.351944 360.949534 
L 51.564194 360.949534 
L 51.564194 353.44 
L 346.351944 353.44 
z
" style="fill:#ff00ff;opacity:0.7;stroke:#ffffff;stroke-linejoin:miter;"/>
   </g>
   <g id="patch_35">
    <path clip-path="url(#pfdcaa4dd9c)" d="M 346.351944 330.911397 
L 52.250945 330.911397 
L 52.250945 323.401863 
L 346.351944 323.401863 
z
" style="fill:#ff00ff;opacity:0.7;stroke:#ffffff;stroke-linejoin:miter;"/>
   </g>
   <g id="patch_36">
    <path clip-path="url(#pfdcaa4dd9c)" d="M 346.351944 300.873259 
L 54.82626 300.873259 
L 54.82626 293.363725 
L 346.351944 293.363725 
z
" style="fill:#ff00ff;opacity:0.7;stroke:#ffffff;stroke-linejoin:miter;"/>
   </g>
   <g id="patch_37">
    <path clip-path="url(#pfdcaa4dd9c)" d="M 346.351944 270.835122 
L 57.487419 270.835122 
L 57.487419 263.325588 
L 346.351944 263.325588 
z
" style="fill:#ff00ff;opacity:0.7;stroke:#ffffff;stroke-linejoin:miter;"/>
   </g>
   <g id="patch_38">
    <path clip-path="url(#pfdcaa4dd9c)" d="M 346.351944 240.796984 
L 56.285605 240.796984 
L 56.285605 233.28745 
L 346.351944 233.28745 
z
" style="fill:#ff00ff;opacity:0.7;stroke:#ffffff;stroke-linejoin:miter;"/>
   </g>
   <g id="patch_39">
    <path clip-path="url(#pfdcaa4dd9c)" d="M 346.351944 210.758847 
L 53.281071 210.758847 
L 53.281071 203.249313 
L 346.351944 203.249313 
z
" style="fill:#ff00ff;opacity:0.7;stroke:#ffffff;stroke-linejoin:miter;"/>
   </g>
   <g id="patch_40">
    <path clip-path="url(#pfdcaa4dd9c)" d="M 346.351944 180.72071 
L 54.82626 180.72071 
L 54.82626 173.211175 
L 346.351944 173.211175 
z
" style="fill:#ff00ff;opacity:0.7;stroke:#ffffff;stroke-linejoin:miter;"/>
   </g>
   <g id="patch_41">
    <path clip-path="url(#pfdcaa4dd9c)" d="M 346.351944 150.682572 
L 53.281071 150.682572 
L 53.281071 143.173038 
L 346.351944 143.173038 
z
" style="fill:#ff00ff;opacity:0.7;stroke:#ffffff;stroke-linejoin:miter;"/>
   </g>
   <g id="patch_42">
    <path clip-path="url(#pfdcaa4dd9c)" d="M 346.351944 120.644435 
L 52.680164 120.644435 
L 52.680164 113.1349 
L 346.351944 113.1349 
z
" style="fill:#ff00ff;opacity:0.7;stroke:#ffffff;stroke-linejoin:miter;"/>
   </g>
   <g id="patch_43">
    <path clip-path="url(#pfdcaa4dd9c)" d="M 346.351944 90.606297 
L 50.877443 90.606297 
L 50.877443 83.096763 
L 346.351944 83.096763 
z
" style="fill:#ff00ff;opacity:0.7;stroke:#ffffff;stroke-linejoin:miter;"/>
   </g>
   <g id="patch_44">
    <path clip-path="url(#pfdcaa4dd9c)" d="M 346.351944 60.56816 
L 48.531045 60.56816 
L 48.531045 53.058625 
L 346.351944 53.058625 
z
" style="fill:#ff00ff;opacity:0.7;stroke:#ffffff;stroke-linejoin:miter;"/>
   </g>
   <g id="patch_45">
    <path clip-path="url(#pfdcaa4dd9c)" d="M 346.351944 653.821375 
L 91.567424 653.821375 
L 91.567424 646.31184 
L 346.351944 646.31184 
z
" style="fill:#ff0000;opacity:0.7;stroke:#ffffff;stroke-linejoin:miter;"/>
   </g>
   <g id="patch_46">
    <path clip-path="url(#pfdcaa4dd9c)" d="M 346.351944 623.783237 
L 93.284301 623.783237 
L 93.284301 616.273703 
L 346.351944 616.273703 
z
" style="fill:#ff0000;opacity:0.7;stroke:#ffffff;stroke-linejoin:miter;"/>
   </g>
   <g id="patch_47">
    <path clip-path="url(#pfdcaa4dd9c)" d="M 346.351944 593.7451 
L 91.10959 593.7451 
L 91.10959 586.235565 
L 346.351944 586.235565 
z
" style="fill:#ff0000;opacity:0.7;stroke:#ffffff;stroke-linejoin:miter;"/>
   </g>
   <g id="patch_48">
    <path clip-path="url(#pfdcaa4dd9c)" d="M 346.351944 563.706962 
L 87.0177 563.706962 
L 87.0177 556.197428 
L 346.351944 556.197428 
z
" style="fill:#ff0000;opacity:0.7;stroke:#ffffff;stroke-linejoin:miter;"/>
   </g>
   <g id="patch_49">
    <path clip-path="url(#pfdcaa4dd9c)" d="M 346.351944 533.668825 
L 84.614073 533.668825 
L 84.614073 526.15929 
L 346.351944 526.15929 
z
" style="fill:#ff0000;opacity:0.7;stroke:#ffffff;stroke-linejoin:miter;"/>
   </g>
   <g id="patch_50">
    <path clip-path="url(#pfdcaa4dd9c)" d="M 346.351944 503.630687 
L 85.815887 503.630687 
L 85.815887 496.121153 
L 346.351944 496.121153 
z
" style="fill:#ff0000;opacity:0.7;stroke:#ffffff;stroke-linejoin:miter;"/>
   </g>
   <g id="patch_51">
    <path clip-path="url(#pfdcaa4dd9c)" d="M 346.351944 473.59255 
L 84.699917 473.59255 
L 84.699917 466.083016 
L 346.351944 466.083016 
z
" style="fill:#ff0000;opacity:0.7;stroke:#ffffff;stroke-linejoin:miter;"/>
   </g>
   <g id="patch_52">
    <path clip-path="url(#pfdcaa4dd9c)" d="M 346.351944 443.554412 
L 87.790295 443.554412 
L 87.790295 436.044878 
L 346.351944 436.044878 
z
" style="fill:#ff0000;opacity:0.7;stroke:#ffffff;stroke-linejoin:miter;"/>
   </g>
   <g id="patch_53">
    <path clip-path="url(#pfdcaa4dd9c)" d="M 346.351944 413.516275 
L 86.073418 413.516275 
L 86.073418 406.006741 
L 346.351944 406.006741 
z
" style="fill:#ff0000;opacity:0.7;stroke:#ffffff;stroke-linejoin:miter;"/>
   </g>
   <g id="patch_54">
    <path clip-path="url(#pfdcaa4dd9c)" d="M 346.351944 383.478137 
L 88.820421 383.478137 
L 88.820421 375.968603 
L 346.351944 375.968603 
z
" style="fill:#ff0000;opacity:0.7;stroke:#ffffff;stroke-linejoin:miter;"/>
   </g>
   <g id="patch_55">
    <path clip-path="url(#pfdcaa4dd9c)" d="M 346.351944 353.44 
L 85.386667 353.44 
L 85.386667 345.930466 
L 346.351944 345.930466 
z
" style="fill:#ff0000;opacity:0.7;stroke:#ffffff;stroke-linejoin:miter;"/>
   </g>
   <g id="patch_56">
    <path clip-path="url(#pfdcaa4dd9c)" d="M 346.351944 323.401863 
L 89.24964 323.401863 
L 89.24964 315.892328 
L 346.351944 315.892328 
z
" style="fill:#ff0000;opacity:0.7;stroke:#ffffff;stroke-linejoin:miter;"/>
   </g>
   <g id="patch_57">
    <path clip-path="url(#pfdcaa4dd9c)" d="M 346.351944 293.363725 
L 93.455988 293.363725 
L 93.455988 285.854191 
L 346.351944 285.854191 
z
" style="fill:#ff0000;opacity:0.7;stroke:#ffffff;stroke-linejoin:miter;"/>
   </g>
   <g id="patch_58">
    <path clip-path="url(#pfdcaa4dd9c)" d="M 346.351944 263.325588 
L 90.537298 263.325588 
L 90.537298 255.816053 
L 346.351944 255.816053 
z
" style="fill:#ff0000;opacity:0.7;stroke:#ffffff;stroke-linejoin:miter;"/>
   </g>
   <g id="patch_59">
    <path clip-path="url(#pfdcaa4dd9c)" d="M 346.351944 233.28745 
L 89.764703 233.28745 
L 89.764703 225.777916 
L 346.351944 225.777916 
z
" style="fill:#ff0000;opacity:0.7;stroke:#ffffff;stroke-linejoin:miter;"/>
   </g>
   <g id="patch_60">
    <path clip-path="url(#pfdcaa4dd9c)" d="M 346.351944 203.249313 
L 92.511706 203.249313 
L 92.511706 195.739778 
L 346.351944 195.739778 
z
" style="fill:#ff0000;opacity:0.7;stroke:#ffffff;stroke-linejoin:miter;"/>
   </g>
   <g id="patch_61">
    <path clip-path="url(#pfdcaa4dd9c)" d="M 346.351944 173.211175 
L 93.370145 173.211175 
L 93.370145 165.701641 
L 346.351944 165.701641 
z
" style="fill:#ff0000;opacity:0.7;stroke:#ffffff;stroke-linejoin:miter;"/>
   </g>
   <g id="patch_62">
    <path clip-path="url(#pfdcaa4dd9c)" d="M 346.351944 143.173038 
L 92.425862 143.173038 
L 92.425862 135.663503 
L 346.351944 135.663503 
z
" style="fill:#ff0000;opacity:0.7;stroke:#ffffff;stroke-linejoin:miter;"/>
   </g>
   <g id="patch_63">
    <path clip-path="url(#pfdcaa4dd9c)" d="M 346.351944 113.1349 
L 87.103544 113.1349 
L 87.103544 105.625366 
L 346.351944 105.625366 
z
" style="fill:#ff0000;opacity:0.7;stroke:#ffffff;stroke-linejoin:miter;"/>
   </g>
   <g id="patch_64">
    <path clip-path="url(#pfdcaa4dd9c)" d="M 346.351944 83.096763 
L 81.952914 83.096763 
L 81.952914 75.587228 
L 346.351944 75.587228 
z
" style="fill:#ff0000;opacity:0.7;stroke:#ffffff;stroke-linejoin:miter;"/>
   </g>
   <g id="patch_65">
    <path clip-path="url(#pfdcaa4dd9c)" d="M 346.351944 53.058625 
L 80.350495 53.058625 
L 80.350495 45.549091 
L 346.351944 45.549091 
z
" style="fill:#ff0000;opacity:0.7;stroke:#ffffff;stroke-linejoin:miter;"/>
   </g>
   <g id="matplotlib.axis_1">
    <g id="xtick_1">
     <g id="line2d_1">
      <defs>
       <path d="M 0 0 
L 0 3.5 
" id="me9cc17853c" style="stroke:#000000;stroke-width:0.8;"/>
      </defs>
      <g>
       <use style="stroke:#000000;stroke-width:0.8;" x="346.351944" xlink:href="#me9cc17853c" y="692.12"/>
      </g>
     </g>
     <g id="text_1">
      <!-- 0 -->
      <defs>
       <path d="M 31.78125 66.40625 
Q 24.171875 66.40625 20.328125 58.90625 
Q 16.5 51.421875 16.5 36.375 
Q 16.5 21.390625 20.328125 13.890625 
Q 24.171875 6.390625 31.78125 6.390625 
Q 39.453125 6.390625 43.28125 13.890625 
Q 47.125 21.390625 47.125 36.375 
Q 47.125 51.421875 43.28125 58.90625 
Q 39.453125 66.40625 31.78125 66.40625 
z
M 31.78125 74.21875 
Q 44.046875 74.21875 50.515625 64.515625 
Q 56.984375 54.828125 56.984375 36.375 
Q 56.984375 17.96875 50.515625 8.265625 
Q 44.046875 -1.421875 31.78125 -1.421875 
Q 19.53125 -1.421875 13.0625 8.265625 
Q 6.59375 17.96875 6.59375 36.375 
Q 6.59375 54.828125 13.0625 64.515625 
Q 19.53125 74.21875 31.78125 74.21875 
z
" id="DejaVuSans-48"/>
      </defs>
      <g transform="translate(341.898194 709.757812)scale(0.14 -0.14)">
       <use xlink:href="#DejaVuSans-48"/>
      </g>
     </g>
    </g>
    <g id="xtick_2">
     <g id="line2d_2">
      <g>
       <use style="stroke:#000000;stroke-width:0.8;" x="277.676871" xlink:href="#me9cc17853c" y="692.12"/>
      </g>
     </g>
     <g id="text_2">
      <!-- 20 -->
      <defs>
       <path d="M 19.1875 8.296875 
L 53.609375 8.296875 
L 53.609375 0 
L 7.328125 0 
L 7.328125 8.296875 
Q 12.9375 14.109375 22.625 23.890625 
Q 32.328125 33.6875 34.8125 36.53125 
Q 39.546875 41.84375 41.421875 45.53125 
Q 43.3125 49.21875 43.3125 52.78125 
Q 43.3125 58.59375 39.234375 62.25 
Q 35.15625 65.921875 28.609375 65.921875 
Q 23.96875 65.921875 18.8125 64.3125 
Q 13.671875 62.703125 7.8125 59.421875 
L 7.8125 69.390625 
Q 13.765625 71.78125 18.9375 73 
Q 24.125 74.21875 28.421875 74.21875 
Q 39.75 74.21875 46.484375 68.546875 
Q 53.21875 62.890625 53.21875 53.421875 
Q 53.21875 48.921875 51.53125 44.890625 
Q 49.859375 40.875 45.40625 35.40625 
Q 44.1875 33.984375 37.640625 27.21875 
Q 31.109375 20.453125 19.1875 8.296875 
z
" id="DejaVuSans-50"/>
      </defs>
      <g transform="translate(268.769371 709.757812)scale(0.14 -0.14)">
       <use xlink:href="#DejaVuSans-50"/>
       <use x="63.623047" xlink:href="#DejaVuSans-48"/>
      </g>
     </g>
    </g>
    <g id="xtick_3">
     <g id="line2d_3">
      <g>
       <use style="stroke:#000000;stroke-width:0.8;" x="209.001798" xlink:href="#me9cc17853c" y="692.12"/>
      </g>
     </g>
     <g id="text_3">
      <!-- 40 -->
      <defs>
       <path d="M 37.796875 64.3125 
L 12.890625 25.390625 
L 37.796875 25.390625 
z
M 35.203125 72.90625 
L 47.609375 72.90625 
L 47.609375 25.390625 
L 58.015625 25.390625 
L 58.015625 17.1875 
L 47.609375 17.1875 
L 47.609375 0 
L 37.796875 0 
L 37.796875 17.1875 
L 4.890625 17.1875 
L 4.890625 26.703125 
z
" id="DejaVuSans-52"/>
      </defs>
      <g transform="translate(200.094298 709.757812)scale(0.14 -0.14)">
       <use xlink:href="#DejaVuSans-52"/>
       <use x="63.623047" xlink:href="#DejaVuSans-48"/>
      </g>
     </g>
    </g>
    <g id="xtick_4">
     <g id="line2d_4">
      <g>
       <use style="stroke:#000000;stroke-width:0.8;" x="140.326726" xlink:href="#me9cc17853c" y="692.12"/>
      </g>
     </g>
     <g id="text_4">
      <!-- 60 -->
      <defs>
       <path d="M 33.015625 40.375 
Q 26.375 40.375 22.484375 35.828125 
Q 18.609375 31.296875 18.609375 23.390625 
Q 18.609375 15.53125 22.484375 10.953125 
Q 26.375 6.390625 33.015625 6.390625 
Q 39.65625 6.390625 43.53125 10.953125 
Q 47.40625 15.53125 47.40625 23.390625 
Q 47.40625 31.296875 43.53125 35.828125 
Q 39.65625 40.375 33.015625 40.375 
z
M 52.59375 71.296875 
L 52.59375 62.3125 
Q 48.875 64.0625 45.09375 64.984375 
Q 41.3125 65.921875 37.59375 65.921875 
Q 27.828125 65.921875 22.671875 59.328125 
Q 17.53125 52.734375 16.796875 39.40625 
Q 19.671875 43.65625 24.015625 45.921875 
Q 28.375 48.1875 33.59375 48.1875 
Q 44.578125 48.1875 50.953125 41.515625 
Q 57.328125 34.859375 57.328125 23.390625 
Q 57.328125 12.15625 50.6875 5.359375 
Q 44.046875 -1.421875 33.015625 -1.421875 
Q 20.359375 -1.421875 13.671875 8.265625 
Q 6.984375 17.96875 6.984375 36.375 
Q 6.984375 53.65625 15.1875 63.9375 
Q 23.390625 74.21875 37.203125 74.21875 
Q 40.921875 74.21875 44.703125 73.484375 
Q 48.484375 72.75 52.59375 71.296875 
z
" id="DejaVuSans-54"/>
      </defs>
      <g transform="translate(131.419226 709.757812)scale(0.14 -0.14)">
       <use xlink:href="#DejaVuSans-54"/>
       <use x="63.623047" xlink:href="#DejaVuSans-48"/>
      </g>
     </g>
    </g>
    <g id="xtick_5">
     <g id="line2d_5">
      <g>
       <use style="stroke:#000000;stroke-width:0.8;" x="71.651653" xlink:href="#me9cc17853c" y="692.12"/>
      </g>
     </g>
     <g id="text_5">
      <!-- 80 -->
      <defs>
       <path d="M 31.78125 34.625 
Q 24.75 34.625 20.71875 30.859375 
Q 16.703125 27.09375 16.703125 20.515625 
Q 16.703125 13.921875 20.71875 10.15625 
Q 24.75 6.390625 31.78125 6.390625 
Q 38.8125 6.390625 42.859375 10.171875 
Q 46.921875 13.96875 46.921875 20.515625 
Q 46.921875 27.09375 42.890625 30.859375 
Q 38.875 34.625 31.78125 34.625 
z
M 21.921875 38.8125 
Q 15.578125 40.375 12.03125 44.71875 
Q 8.5 49.078125 8.5 55.328125 
Q 8.5 64.0625 14.71875 69.140625 
Q 20.953125 74.21875 31.78125 74.21875 
Q 42.671875 74.21875 48.875 69.140625 
Q 55.078125 64.0625 55.078125 55.328125 
Q 55.078125 49.078125 51.53125 44.71875 
Q 48 40.375 41.703125 38.8125 
Q 48.828125 37.15625 52.796875 32.3125 
Q 56.78125 27.484375 56.78125 20.515625 
Q 56.78125 9.90625 50.3125 4.234375 
Q 43.84375 -1.421875 31.78125 -1.421875 
Q 19.734375 -1.421875 13.25 4.234375 
Q 6.78125 9.90625 6.78125 20.515625 
Q 6.78125 27.484375 10.78125 32.3125 
Q 14.796875 37.15625 21.921875 38.8125 
z
M 18.3125 54.390625 
Q 18.3125 48.734375 21.84375 45.5625 
Q 25.390625 42.390625 31.78125 42.390625 
Q 38.140625 42.390625 41.71875 45.5625 
Q 45.3125 48.734375 45.3125 54.390625 
Q 45.3125 60.0625 41.71875 63.234375 
Q 38.140625 66.40625 31.78125 66.40625 
Q 25.390625 66.40625 21.84375 63.234375 
Q 18.3125 60.0625 18.3125 54.390625 
z
" id="DejaVuSans-56"/>
      </defs>
      <g transform="translate(62.744153 709.757812)scale(0.14 -0.14)">
       <use xlink:href="#DejaVuSans-56"/>
       <use x="63.623047" xlink:href="#DejaVuSans-48"/>
      </g>
     </g>
    </g>
   </g>
   <g id="matplotlib.axis_2"/>
   <g id="patch_66">
    <path d="M 33.64 692.12 
L 33.64 14.76 
" style="fill:none;stroke:#000000;stroke-linecap:square;stroke-linejoin:miter;stroke-width:0.8;"/>
   </g>
   <g id="patch_67">
    <path d="M 346.351944 692.12 
L 346.351944 14.76 
" style="fill:none;stroke:#000000;stroke-linecap:square;stroke-linejoin:miter;stroke-width:0.8;"/>
   </g>
   <g id="patch_68">
    <path d="M 33.64 692.12 
L 346.351944 692.12 
" style="fill:none;stroke:#000000;stroke-linecap:square;stroke-linejoin:miter;stroke-width:0.8;"/>
   </g>
   <g id="patch_69">
    <path d="M 33.64 14.76 
L 346.351944 14.76 
" style="fill:none;stroke:#000000;stroke-linecap:square;stroke-linejoin:miter;stroke-width:0.8;"/>
   </g>
   <g id="text_6">
    <!-- 1998 -->
    <defs>
     <path d="M 12.40625 8.296875 
L 28.515625 8.296875 
L 28.515625 63.921875 
L 10.984375 60.40625 
L 10.984375 69.390625 
L 28.421875 72.90625 
L 38.28125 72.90625 
L 38.28125 8.296875 
L 54.390625 8.296875 
L 54.390625 0 
L 12.40625 0 
z
" id="DejaVuSans-49"/>
     <path d="M 10.984375 1.515625 
L 10.984375 10.5 
Q 14.703125 8.734375 18.5 7.8125 
Q 22.3125 6.890625 25.984375 6.890625 
Q 35.75 6.890625 40.890625 13.453125 
Q 46.046875 20.015625 46.78125 33.40625 
Q 43.953125 29.203125 39.59375 26.953125 
Q 35.25 24.703125 29.984375 24.703125 
Q 19.046875 24.703125 12.671875 31.3125 
Q 6.296875 37.9375 6.296875 49.421875 
Q 6.296875 60.640625 12.9375 67.421875 
Q 19.578125 74.21875 30.609375 74.21875 
Q 43.265625 74.21875 49.921875 64.515625 
Q 56.59375 54.828125 56.59375 36.375 
Q 56.59375 19.140625 48.40625 8.859375 
Q 40.234375 -1.421875 26.421875 -1.421875 
Q 22.703125 -1.421875 18.890625 -0.6875 
Q 15.09375 0.046875 10.984375 1.515625 
z
M 30.609375 32.421875 
Q 37.25 32.421875 41.125 36.953125 
Q 45.015625 41.5 45.015625 49.421875 
Q 45.015625 57.28125 41.125 61.84375 
Q 37.25 66.40625 30.609375 66.40625 
Q 23.96875 66.40625 20.09375 61.84375 
Q 16.21875 57.28125 16.21875 49.421875 
Q 16.21875 41.5 20.09375 36.953125 
Q 23.96875 32.421875 30.609375 32.421875 
z
" id="DejaVuSans-57"/>
    </defs>
    <g transform="translate(348.412196 662.081863)scale(0.14 -0.14)">
     <use xlink:href="#DejaVuSans-49"/>
     <use x="63.623047" xlink:href="#DejaVuSans-57"/>
     <use x="127.246094" xlink:href="#DejaVuSans-57"/>
     <use x="190.869141" xlink:href="#DejaVuSans-56"/>
    </g>
   </g>
   <g id="text_7">
    <!-- 1999 -->
    <g transform="translate(348.412196 632.043725)scale(0.14 -0.14)">
     <use xlink:href="#DejaVuSans-49"/>
     <use x="63.623047" xlink:href="#DejaVuSans-57"/>
     <use x="127.246094" xlink:href="#DejaVuSans-57"/>
     <use x="190.869141" xlink:href="#DejaVuSans-57"/>
    </g>
   </g>
   <g id="text_8">
    <!-- 2000 -->
    <g transform="translate(348.412196 602.005588)scale(0.14 -0.14)">
     <use xlink:href="#DejaVuSans-50"/>
     <use x="63.623047" xlink:href="#DejaVuSans-48"/>
     <use x="127.246094" xlink:href="#DejaVuSans-48"/>
     <use x="190.869141" xlink:href="#DejaVuSans-48"/>
    </g>
   </g>
   <g id="text_9">
    <!-- 2001 -->
    <g transform="translate(348.412196 571.96745)scale(0.14 -0.14)">
     <use xlink:href="#DejaVuSans-50"/>
     <use x="63.623047" xlink:href="#DejaVuSans-48"/>
     <use x="127.246094" xlink:href="#DejaVuSans-48"/>
     <use x="190.869141" xlink:href="#DejaVuSans-49"/>
    </g>
   </g>
   <g id="text_10">
    <!-- 2002 -->
    <g transform="translate(348.412196 541.929313)scale(0.14 -0.14)">
     <use xlink:href="#DejaVuSans-50"/>
     <use x="63.623047" xlink:href="#DejaVuSans-48"/>
     <use x="127.246094" xlink:href="#DejaVuSans-48"/>
     <use x="190.869141" xlink:href="#DejaVuSans-50"/>
    </g>
   </g>
   <g id="text_11">
    <!-- 2003 -->
    <defs>
     <path d="M 40.578125 39.3125 
Q 47.65625 37.796875 51.625 33 
Q 55.609375 28.21875 55.609375 21.1875 
Q 55.609375 10.40625 48.1875 4.484375 
Q 40.765625 -1.421875 27.09375 -1.421875 
Q 22.515625 -1.421875 17.65625 -0.515625 
Q 12.796875 0.390625 7.625 2.203125 
L 7.625 11.71875 
Q 11.71875 9.328125 16.59375 8.109375 
Q 21.484375 6.890625 26.8125 6.890625 
Q 36.078125 6.890625 40.9375 10.546875 
Q 45.796875 14.203125 45.796875 21.1875 
Q 45.796875 27.640625 41.28125 31.265625 
Q 36.765625 34.90625 28.71875 34.90625 
L 20.21875 34.90625 
L 20.21875 43.015625 
L 29.109375 43.015625 
Q 36.375 43.015625 40.234375 45.921875 
Q 44.09375 48.828125 44.09375 54.296875 
Q 44.09375 59.90625 40.109375 62.90625 
Q 36.140625 65.921875 28.71875 65.921875 
Q 24.65625 65.921875 20.015625 65.03125 
Q 15.375 64.15625 9.8125 62.3125 
L 9.8125 71.09375 
Q 15.4375 72.65625 20.34375 73.4375 
Q 25.25 74.21875 29.59375 74.21875 
Q 40.828125 74.21875 47.359375 69.109375 
Q 53.90625 64.015625 53.90625 55.328125 
Q 53.90625 49.265625 50.4375 45.09375 
Q 46.96875 40.921875 40.578125 39.3125 
z
" id="DejaVuSans-51"/>
    </defs>
    <g transform="translate(348.412196 511.891175)scale(0.14 -0.14)">
     <use xlink:href="#DejaVuSans-50"/>
     <use x="63.623047" xlink:href="#DejaVuSans-48"/>
     <use x="127.246094" xlink:href="#DejaVuSans-48"/>
     <use x="190.869141" xlink:href="#DejaVuSans-51"/>
    </g>
   </g>
   <g id="text_12">
    <!-- 2004 -->
    <g transform="translate(348.412196 481.853038)scale(0.14 -0.14)">
     <use xlink:href="#DejaVuSans-50"/>
     <use x="63.623047" xlink:href="#DejaVuSans-48"/>
     <use x="127.246094" xlink:href="#DejaVuSans-48"/>
     <use x="190.869141" xlink:href="#DejaVuSans-52"/>
    </g>
   </g>
   <g id="text_13">
    <!-- 2005 -->
    <defs>
     <path d="M 10.796875 72.90625 
L 49.515625 72.90625 
L 49.515625 64.59375 
L 19.828125 64.59375 
L 19.828125 46.734375 
Q 21.96875 47.46875 24.109375 47.828125 
Q 26.265625 48.1875 28.421875 48.1875 
Q 40.625 48.1875 47.75 41.5 
Q 54.890625 34.8125 54.890625 23.390625 
Q 54.890625 11.625 47.5625 5.09375 
Q 40.234375 -1.421875 26.90625 -1.421875 
Q 22.3125 -1.421875 17.546875 -0.640625 
Q 12.796875 0.140625 7.71875 1.703125 
L 7.71875 11.625 
Q 12.109375 9.234375 16.796875 8.0625 
Q 21.484375 6.890625 26.703125 6.890625 
Q 35.15625 6.890625 40.078125 11.328125 
Q 45.015625 15.765625 45.015625 23.390625 
Q 45.015625 31 40.078125 35.4375 
Q 35.15625 39.890625 26.703125 39.890625 
Q 22.75 39.890625 18.8125 39.015625 
Q 14.890625 38.140625 10.796875 36.28125 
z
" id="DejaVuSans-53"/>
    </defs>
    <g transform="translate(348.412196 451.8149)scale(0.14 -0.14)">
     <use xlink:href="#DejaVuSans-50"/>
     <use x="63.623047" xlink:href="#DejaVuSans-48"/>
     <use x="127.246094" xlink:href="#DejaVuSans-48"/>
     <use x="190.869141" xlink:href="#DejaVuSans-53"/>
    </g>
   </g>
   <g id="text_14">
    <!-- 2006 -->
    <g transform="translate(348.412196 421.776763)scale(0.14 -0.14)">
     <use xlink:href="#DejaVuSans-50"/>
     <use x="63.623047" xlink:href="#DejaVuSans-48"/>
     <use x="127.246094" xlink:href="#DejaVuSans-48"/>
     <use x="190.869141" xlink:href="#DejaVuSans-54"/>
    </g>
   </g>
   <g id="text_15">
    <!-- 2007 -->
    <defs>
     <path d="M 8.203125 72.90625 
L 55.078125 72.90625 
L 55.078125 68.703125 
L 28.609375 0 
L 18.3125 0 
L 43.21875 64.59375 
L 8.203125 64.59375 
z
" id="DejaVuSans-55"/>
    </defs>
    <g transform="translate(348.412196 391.738625)scale(0.14 -0.14)">
     <use xlink:href="#DejaVuSans-50"/>
     <use x="63.623047" xlink:href="#DejaVuSans-48"/>
     <use x="127.246094" xlink:href="#DejaVuSans-48"/>
     <use x="190.869141" xlink:href="#DejaVuSans-55"/>
    </g>
   </g>
   <g id="text_16">
    <!-- 2008 -->
    <g transform="translate(348.412196 361.700488)scale(0.14 -0.14)">
     <use xlink:href="#DejaVuSans-50"/>
     <use x="63.623047" xlink:href="#DejaVuSans-48"/>
     <use x="127.246094" xlink:href="#DejaVuSans-48"/>
     <use x="190.869141" xlink:href="#DejaVuSans-56"/>
    </g>
   </g>
   <g id="text_17">
    <!-- 2009 -->
    <g transform="translate(348.412196 331.66235)scale(0.14 -0.14)">
     <use xlink:href="#DejaVuSans-50"/>
     <use x="63.623047" xlink:href="#DejaVuSans-48"/>
     <use x="127.246094" xlink:href="#DejaVuSans-48"/>
     <use x="190.869141" xlink:href="#DejaVuSans-57"/>
    </g>
   </g>
   <g id="text_18">
    <!-- 2010 -->
    <g transform="translate(348.412196 301.624213)scale(0.14 -0.14)">
     <use xlink:href="#DejaVuSans-50"/>
     <use x="63.623047" xlink:href="#DejaVuSans-48"/>
     <use x="127.246094" xlink:href="#DejaVuSans-49"/>
     <use x="190.869141" xlink:href="#DejaVuSans-48"/>
    </g>
   </g>
   <g id="text_19">
    <!-- 2011 -->
    <g transform="translate(348.412196 271.586075)scale(0.14 -0.14)">
     <use xlink:href="#DejaVuSans-50"/>
     <use x="63.623047" xlink:href="#DejaVuSans-48"/>
     <use x="127.246094" xlink:href="#DejaVuSans-49"/>
     <use x="190.869141" xlink:href="#DejaVuSans-49"/>
    </g>
   </g>
   <g id="text_20">
    <!-- 2012 -->
    <g transform="translate(348.412196 241.547938)scale(0.14 -0.14)">
     <use xlink:href="#DejaVuSans-50"/>
     <use x="63.623047" xlink:href="#DejaVuSans-48"/>
     <use x="127.246094" xlink:href="#DejaVuSans-49"/>
     <use x="190.869141" xlink:href="#DejaVuSans-50"/>
    </g>
   </g>
   <g id="text_21">
    <!-- 2013 -->
    <g transform="translate(348.412196 211.5098)scale(0.14 -0.14)">
     <use xlink:href="#DejaVuSans-50"/>
     <use x="63.623047" xlink:href="#DejaVuSans-48"/>
     <use x="127.246094" xlink:href="#DejaVuSans-49"/>
     <use x="190.869141" xlink:href="#DejaVuSans-51"/>
    </g>
   </g>
   <g id="text_22">
    <!-- 2014 -->
    <g transform="translate(348.412196 181.471663)scale(0.14 -0.14)">
     <use xlink:href="#DejaVuSans-50"/>
     <use x="63.623047" xlink:href="#DejaVuSans-48"/>
     <use x="127.246094" xlink:href="#DejaVuSans-49"/>
     <use x="190.869141" xlink:href="#DejaVuSans-52"/>
    </g>
   </g>
   <g id="text_23">
    <!-- 2015 -->
    <g transform="translate(348.412196 151.433525)scale(0.14 -0.14)">
     <use xlink:href="#DejaVuSans-50"/>
     <use x="63.623047" xlink:href="#DejaVuSans-48"/>
     <use x="127.246094" xlink:href="#DejaVuSans-49"/>
     <use x="190.869141" xlink:href="#DejaVuSans-53"/>
    </g>
   </g>
   <g id="text_24">
    <!-- 2016 -->
    <g transform="translate(348.412196 121.395388)scale(0.14 -0.14)">
     <use xlink:href="#DejaVuSans-50"/>
     <use x="63.623047" xlink:href="#DejaVuSans-48"/>
     <use x="127.246094" xlink:href="#DejaVuSans-49"/>
     <use x="190.869141" xlink:href="#DejaVuSans-54"/>
    </g>
   </g>
   <g id="text_25">
    <!-- 2017 -->
    <g transform="translate(348.412196 91.357251)scale(0.14 -0.14)">
     <use xlink:href="#DejaVuSans-50"/>
     <use x="63.623047" xlink:href="#DejaVuSans-48"/>
     <use x="127.246094" xlink:href="#DejaVuSans-49"/>
     <use x="190.869141" xlink:href="#DejaVuSans-55"/>
    </g>
   </g>
   <g id="text_26">
    <!-- 2018 -->
    <g transform="translate(348.412196 61.319113)scale(0.14 -0.14)">
     <use xlink:href="#DejaVuSans-50"/>
     <use x="63.623047" xlink:href="#DejaVuSans-48"/>
     <use x="127.246094" xlink:href="#DejaVuSans-49"/>
     <use x="190.869141" xlink:href="#DejaVuSans-56"/>
    </g>
   </g>
   <g id="text_27">
    <!-- Employed female [%], ages: 25-64 -->
    <defs>
     <path d="M 9.8125 72.90625 
L 55.90625 72.90625 
L 55.90625 64.59375 
L 19.671875 64.59375 
L 19.671875 43.015625 
L 54.390625 43.015625 
L 54.390625 34.71875 
L 19.671875 34.71875 
L 19.671875 8.296875 
L 56.78125 8.296875 
L 56.78125 0 
L 9.8125 0 
z
" id="DejaVuSans-69"/>
     <path d="M 52 44.1875 
Q 55.375 50.25 60.0625 53.125 
Q 64.75 56 71.09375 56 
Q 79.640625 56 84.28125 50.015625 
Q 88.921875 44.046875 88.921875 33.015625 
L 88.921875 0 
L 79.890625 0 
L 79.890625 32.71875 
Q 79.890625 40.578125 77.09375 44.375 
Q 74.3125 48.1875 68.609375 48.1875 
Q 61.625 48.1875 57.5625 43.546875 
Q 53.515625 38.921875 53.515625 30.90625 
L 53.515625 0 
L 44.484375 0 
L 44.484375 32.71875 
Q 44.484375 40.625 41.703125 44.40625 
Q 38.921875 48.1875 33.109375 48.1875 
Q 26.21875 48.1875 22.15625 43.53125 
Q 18.109375 38.875 18.109375 30.90625 
L 18.109375 0 
L 9.078125 0 
L 9.078125 54.6875 
L 18.109375 54.6875 
L 18.109375 46.1875 
Q 21.1875 51.21875 25.484375 53.609375 
Q 29.78125 56 35.6875 56 
Q 41.65625 56 45.828125 52.96875 
Q 50 49.953125 52 44.1875 
z
" id="DejaVuSans-109"/>
     <path d="M 18.109375 8.203125 
L 18.109375 -20.796875 
L 9.078125 -20.796875 
L 9.078125 54.6875 
L 18.109375 54.6875 
L 18.109375 46.390625 
Q 20.953125 51.265625 25.265625 53.625 
Q 29.59375 56 35.59375 56 
Q 45.5625 56 51.78125 48.09375 
Q 58.015625 40.1875 58.015625 27.296875 
Q 58.015625 14.40625 51.78125 6.484375 
Q 45.5625 -1.421875 35.59375 -1.421875 
Q 29.59375 -1.421875 25.265625 0.953125 
Q 20.953125 3.328125 18.109375 8.203125 
z
M 48.6875 27.296875 
Q 48.6875 37.203125 44.609375 42.84375 
Q 40.53125 48.484375 33.40625 48.484375 
Q 26.265625 48.484375 22.1875 42.84375 
Q 18.109375 37.203125 18.109375 27.296875 
Q 18.109375 17.390625 22.1875 11.75 
Q 26.265625 6.109375 33.40625 6.109375 
Q 40.53125 6.109375 44.609375 11.75 
Q 48.6875 17.390625 48.6875 27.296875 
z
" id="DejaVuSans-112"/>
     <path d="M 9.421875 75.984375 
L 18.40625 75.984375 
L 18.40625 0 
L 9.421875 0 
z
" id="DejaVuSans-108"/>
     <path d="M 30.609375 48.390625 
Q 23.390625 48.390625 19.1875 42.75 
Q 14.984375 37.109375 14.984375 27.296875 
Q 14.984375 17.484375 19.15625 11.84375 
Q 23.34375 6.203125 30.609375 6.203125 
Q 37.796875 6.203125 41.984375 11.859375 
Q 46.1875 17.53125 46.1875 27.296875 
Q 46.1875 37.015625 41.984375 42.703125 
Q 37.796875 48.390625 30.609375 48.390625 
z
M 30.609375 56 
Q 42.328125 56 49.015625 48.375 
Q 55.71875 40.765625 55.71875 27.296875 
Q 55.71875 13.875 49.015625 6.21875 
Q 42.328125 -1.421875 30.609375 -1.421875 
Q 18.84375 -1.421875 12.171875 6.21875 
Q 5.515625 13.875 5.515625 27.296875 
Q 5.515625 40.765625 12.171875 48.375 
Q 18.84375 56 30.609375 56 
z
" id="DejaVuSans-111"/>
     <path d="M 32.171875 -5.078125 
Q 28.375 -14.84375 24.75 -17.8125 
Q 21.140625 -20.796875 15.09375 -20.796875 
L 7.90625 -20.796875 
L 7.90625 -13.28125 
L 13.1875 -13.28125 
Q 16.890625 -13.28125 18.9375 -11.515625 
Q 21 -9.765625 23.484375 -3.21875 
L 25.09375 0.875 
L 2.984375 54.6875 
L 12.5 54.6875 
L 29.59375 11.921875 
L 46.6875 54.6875 
L 56.203125 54.6875 
z
" id="DejaVuSans-121"/>
     <path d="M 56.203125 29.59375 
L 56.203125 25.203125 
L 14.890625 25.203125 
Q 15.484375 15.921875 20.484375 11.0625 
Q 25.484375 6.203125 34.421875 6.203125 
Q 39.59375 6.203125 44.453125 7.46875 
Q 49.3125 8.734375 54.109375 11.28125 
L 54.109375 2.78125 
Q 49.265625 0.734375 44.1875 -0.34375 
Q 39.109375 -1.421875 33.890625 -1.421875 
Q 20.796875 -1.421875 13.15625 6.1875 
Q 5.515625 13.8125 5.515625 26.8125 
Q 5.515625 40.234375 12.765625 48.109375 
Q 20.015625 56 32.328125 56 
Q 43.359375 56 49.78125 48.890625 
Q 56.203125 41.796875 56.203125 29.59375 
z
M 47.21875 32.234375 
Q 47.125 39.59375 43.09375 43.984375 
Q 39.0625 48.390625 32.421875 48.390625 
Q 24.90625 48.390625 20.390625 44.140625 
Q 15.875 39.890625 15.1875 32.171875 
z
" id="DejaVuSans-101"/>
     <path d="M 45.40625 46.390625 
L 45.40625 75.984375 
L 54.390625 75.984375 
L 54.390625 0 
L 45.40625 0 
L 45.40625 8.203125 
Q 42.578125 3.328125 38.25 0.953125 
Q 33.9375 -1.421875 27.875 -1.421875 
Q 17.96875 -1.421875 11.734375 6.484375 
Q 5.515625 14.40625 5.515625 27.296875 
Q 5.515625 40.1875 11.734375 48.09375 
Q 17.96875 56 27.875 56 
Q 33.9375 56 38.25 53.625 
Q 42.578125 51.265625 45.40625 46.390625 
z
M 14.796875 27.296875 
Q 14.796875 17.390625 18.875 11.75 
Q 22.953125 6.109375 30.078125 6.109375 
Q 37.203125 6.109375 41.296875 11.75 
Q 45.40625 17.390625 45.40625 27.296875 
Q 45.40625 37.203125 41.296875 42.84375 
Q 37.203125 48.484375 30.078125 48.484375 
Q 22.953125 48.484375 18.875 42.84375 
Q 14.796875 37.203125 14.796875 27.296875 
z
" id="DejaVuSans-100"/>
     <path id="DejaVuSans-32"/>
     <path d="M 37.109375 75.984375 
L 37.109375 68.5 
L 28.515625 68.5 
Q 23.6875 68.5 21.796875 66.546875 
Q 19.921875 64.59375 19.921875 59.515625 
L 19.921875 54.6875 
L 34.71875 54.6875 
L 34.71875 47.703125 
L 19.921875 47.703125 
L 19.921875 0 
L 10.890625 0 
L 10.890625 47.703125 
L 2.296875 47.703125 
L 2.296875 54.6875 
L 10.890625 54.6875 
L 10.890625 58.5 
Q 10.890625 67.625 15.140625 71.796875 
Q 19.390625 75.984375 28.609375 75.984375 
z
" id="DejaVuSans-102"/>
     <path d="M 34.28125 27.484375 
Q 23.390625 27.484375 19.1875 25 
Q 14.984375 22.515625 14.984375 16.5 
Q 14.984375 11.71875 18.140625 8.90625 
Q 21.296875 6.109375 26.703125 6.109375 
Q 34.1875 6.109375 38.703125 11.40625 
Q 43.21875 16.703125 43.21875 25.484375 
L 43.21875 27.484375 
z
M 52.203125 31.203125 
L 52.203125 0 
L 43.21875 0 
L 43.21875 8.296875 
Q 40.140625 3.328125 35.546875 0.953125 
Q 30.953125 -1.421875 24.3125 -1.421875 
Q 15.921875 -1.421875 10.953125 3.296875 
Q 6 8.015625 6 15.921875 
Q 6 25.140625 12.171875 29.828125 
Q 18.359375 34.515625 30.609375 34.515625 
L 43.21875 34.515625 
L 43.21875 35.40625 
Q 43.21875 41.609375 39.140625 45 
Q 35.0625 48.390625 27.6875 48.390625 
Q 23 48.390625 18.546875 47.265625 
Q 14.109375 46.140625 10.015625 43.890625 
L 10.015625 52.203125 
Q 14.9375 54.109375 19.578125 55.046875 
Q 24.21875 56 28.609375 56 
Q 40.484375 56 46.34375 49.84375 
Q 52.203125 43.703125 52.203125 31.203125 
z
" id="DejaVuSans-97"/>
     <path d="M 8.59375 75.984375 
L 29.296875 75.984375 
L 29.296875 69 
L 17.578125 69 
L 17.578125 -6.203125 
L 29.296875 -6.203125 
L 29.296875 -13.1875 
L 8.59375 -13.1875 
z
" id="DejaVuSans-91"/>
     <path d="M 72.703125 32.078125 
Q 68.453125 32.078125 66.03125 28.46875 
Q 63.625 24.859375 63.625 18.40625 
Q 63.625 12.0625 66.03125 8.421875 
Q 68.453125 4.78125 72.703125 4.78125 
Q 76.859375 4.78125 79.265625 8.421875 
Q 81.6875 12.0625 81.6875 18.40625 
Q 81.6875 24.8125 79.265625 28.4375 
Q 76.859375 32.078125 72.703125 32.078125 
z
M 72.703125 38.28125 
Q 80.421875 38.28125 84.953125 32.90625 
Q 89.5 27.546875 89.5 18.40625 
Q 89.5 9.28125 84.9375 3.921875 
Q 80.375 -1.421875 72.703125 -1.421875 
Q 64.890625 -1.421875 60.34375 3.921875 
Q 55.8125 9.28125 55.8125 18.40625 
Q 55.8125 27.59375 60.375 32.9375 
Q 64.9375 38.28125 72.703125 38.28125 
z
M 22.3125 68.015625 
Q 18.109375 68.015625 15.6875 64.375 
Q 13.28125 60.75 13.28125 54.390625 
Q 13.28125 47.953125 15.671875 44.328125 
Q 18.0625 40.71875 22.3125 40.71875 
Q 26.5625 40.71875 28.96875 44.328125 
Q 31.390625 47.953125 31.390625 54.390625 
Q 31.390625 60.6875 28.953125 64.34375 
Q 26.515625 68.015625 22.3125 68.015625 
z
M 66.40625 74.21875 
L 74.21875 74.21875 
L 28.609375 -1.421875 
L 20.796875 -1.421875 
z
M 22.3125 74.21875 
Q 30.03125 74.21875 34.609375 68.875 
Q 39.203125 63.53125 39.203125 54.390625 
Q 39.203125 45.171875 34.640625 39.84375 
Q 30.078125 34.515625 22.3125 34.515625 
Q 14.546875 34.515625 10.03125 39.859375 
Q 5.515625 45.21875 5.515625 54.390625 
Q 5.515625 63.484375 10.046875 68.84375 
Q 14.59375 74.21875 22.3125 74.21875 
z
" id="DejaVuSans-37"/>
     <path d="M 30.421875 75.984375 
L 30.421875 -13.1875 
L 9.71875 -13.1875 
L 9.71875 -6.203125 
L 21.390625 -6.203125 
L 21.390625 69 
L 9.71875 69 
L 9.71875 75.984375 
z
" id="DejaVuSans-93"/>
     <path d="M 11.71875 12.40625 
L 22.015625 12.40625 
L 22.015625 4 
L 14.015625 -11.625 
L 7.71875 -11.625 
L 11.71875 4 
z
" id="DejaVuSans-44"/>
     <path d="M 45.40625 27.984375 
Q 45.40625 37.75 41.375 43.109375 
Q 37.359375 48.484375 30.078125 48.484375 
Q 22.859375 48.484375 18.828125 43.109375 
Q 14.796875 37.75 14.796875 27.984375 
Q 14.796875 18.265625 18.828125 12.890625 
Q 22.859375 7.515625 30.078125 7.515625 
Q 37.359375 7.515625 41.375 12.890625 
Q 45.40625 18.265625 45.40625 27.984375 
z
M 54.390625 6.78125 
Q 54.390625 -7.171875 48.1875 -13.984375 
Q 42 -20.796875 29.203125 -20.796875 
Q 24.46875 -20.796875 20.265625 -20.09375 
Q 16.0625 -19.390625 12.109375 -17.921875 
L 12.109375 -9.1875 
Q 16.0625 -11.328125 19.921875 -12.34375 
Q 23.78125 -13.375 27.78125 -13.375 
Q 36.625 -13.375 41.015625 -8.765625 
Q 45.40625 -4.15625 45.40625 5.171875 
L 45.40625 9.625 
Q 42.625 4.78125 38.28125 2.390625 
Q 33.9375 0 27.875 0 
Q 17.828125 0 11.671875 7.65625 
Q 5.515625 15.328125 5.515625 27.984375 
Q 5.515625 40.671875 11.671875 48.328125 
Q 17.828125 56 27.875 56 
Q 33.9375 56 38.28125 53.609375 
Q 42.625 51.21875 45.40625 46.390625 
L 45.40625 54.6875 
L 54.390625 54.6875 
z
" id="DejaVuSans-103"/>
     <path d="M 44.28125 53.078125 
L 44.28125 44.578125 
Q 40.484375 46.53125 36.375 47.5 
Q 32.28125 48.484375 27.875 48.484375 
Q 21.1875 48.484375 17.84375 46.4375 
Q 14.5 44.390625 14.5 40.28125 
Q 14.5 37.15625 16.890625 35.375 
Q 19.28125 33.59375 26.515625 31.984375 
L 29.59375 31.296875 
Q 39.15625 29.25 43.1875 25.515625 
Q 47.21875 21.78125 47.21875 15.09375 
Q 47.21875 7.46875 41.1875 3.015625 
Q 35.15625 -1.421875 24.609375 -1.421875 
Q 20.21875 -1.421875 15.453125 -0.5625 
Q 10.6875 0.296875 5.421875 2 
L 5.421875 11.28125 
Q 10.40625 8.6875 15.234375 7.390625 
Q 20.0625 6.109375 24.8125 6.109375 
Q 31.15625 6.109375 34.5625 8.28125 
Q 37.984375 10.453125 37.984375 14.40625 
Q 37.984375 18.0625 35.515625 20.015625 
Q 33.0625 21.96875 24.703125 23.78125 
L 21.578125 24.515625 
Q 13.234375 26.265625 9.515625 29.90625 
Q 5.8125 33.546875 5.8125 39.890625 
Q 5.8125 47.609375 11.28125 51.796875 
Q 16.75 56 26.8125 56 
Q 31.78125 56 36.171875 55.265625 
Q 40.578125 54.546875 44.28125 53.078125 
z
" id="DejaVuSans-115"/>
     <path d="M 11.71875 12.40625 
L 22.015625 12.40625 
L 22.015625 0 
L 11.71875 0 
z
M 11.71875 51.703125 
L 22.015625 51.703125 
L 22.015625 39.3125 
L 11.71875 39.3125 
z
" id="DejaVuSans-58"/>
     <path d="M 4.890625 31.390625 
L 31.203125 31.390625 
L 31.203125 23.390625 
L 4.890625 23.390625 
z
" id="DejaVuSans-45"/>
    </defs>
    <g transform="translate(59.751441 8.76)scale(0.15 -0.15)">
     <use xlink:href="#DejaVuSans-69"/>
     <use x="63.183594" xlink:href="#DejaVuSans-109"/>
     <use x="160.595703" xlink:href="#DejaVuSans-112"/>
     <use x="224.072266" xlink:href="#DejaVuSans-108"/>
     <use x="251.855469" xlink:href="#DejaVuSans-111"/>
     <use x="313.037109" xlink:href="#DejaVuSans-121"/>
     <use x="372.216797" xlink:href="#DejaVuSans-101"/>
     <use x="433.740234" xlink:href="#DejaVuSans-100"/>
     <use x="497.216797" xlink:href="#DejaVuSans-32"/>
     <use x="529.003906" xlink:href="#DejaVuSans-102"/>
     <use x="564.208984" xlink:href="#DejaVuSans-101"/>
     <use x="625.732422" xlink:href="#DejaVuSans-109"/>
     <use x="723.144531" xlink:href="#DejaVuSans-97"/>
     <use x="784.423828" xlink:href="#DejaVuSans-108"/>
     <use x="812.207031" xlink:href="#DejaVuSans-101"/>
     <use x="873.730469" xlink:href="#DejaVuSans-32"/>
     <use x="905.517578" xlink:href="#DejaVuSans-91"/>
     <use x="944.53125" xlink:href="#DejaVuSans-37"/>
     <use x="1039.550781" xlink:href="#DejaVuSans-93"/>
     <use x="1078.564453" xlink:href="#DejaVuSans-44"/>
     <use x="1110.351562" xlink:href="#DejaVuSans-32"/>
     <use x="1142.138672" xlink:href="#DejaVuSans-97"/>
     <use x="1203.417969" xlink:href="#DejaVuSans-103"/>
     <use x="1266.894531" xlink:href="#DejaVuSans-101"/>
     <use x="1328.417969" xlink:href="#DejaVuSans-115"/>
     <use x="1380.517578" xlink:href="#DejaVuSans-58"/>
     <use x="1414.208984" xlink:href="#DejaVuSans-32"/>
     <use x="1445.996094" xlink:href="#DejaVuSans-50"/>
     <use x="1509.619141" xlink:href="#DejaVuSans-53"/>
     <use x="1573.242188" xlink:href="#DejaVuSans-45"/>
     <use x="1609.326172" xlink:href="#DejaVuSans-54"/>
     <use x="1672.949219" xlink:href="#DejaVuSans-52"/>
    </g>
   </g>
   <g id="legend_1">
    <g id="patch_70">
     <path d="M 44.14 684.62 
L 112.954844 684.62 
Q 115.954844 684.62 115.954844 681.62 
L 115.954844 617.068438 
Q 115.954844 614.068438 112.954844 614.068438 
L 44.14 614.068438 
Q 41.14 614.068438 41.14 617.068438 
L 41.14 681.62 
Q 41.14 684.62 44.14 684.62 
z
" style="fill:#ffffff;opacity:0.8;stroke:#cccccc;stroke-linejoin:miter;"/>
    </g>
    <g id="patch_71">
     <path d="M 47.14 631.466094 
L 77.14 631.466094 
L 77.14 620.966094 
L 47.14 620.966094 
z
" style="fill:#800080;opacity:0.7;stroke:#ffffff;stroke-linejoin:miter;"/>
    </g>
    <g id="text_28">
     <!-- UK -->
     <defs>
      <path d="M 8.6875 72.90625 
L 18.609375 72.90625 
L 18.609375 28.609375 
Q 18.609375 16.890625 22.84375 11.734375 
Q 27.09375 6.59375 36.625 6.59375 
Q 46.09375 6.59375 50.34375 11.734375 
Q 54.59375 16.890625 54.59375 28.609375 
L 54.59375 72.90625 
L 64.5 72.90625 
L 64.5 27.390625 
Q 64.5 13.140625 57.4375 5.859375 
Q 50.390625 -1.421875 36.625 -1.421875 
Q 22.796875 -1.421875 15.734375 5.859375 
Q 8.6875 13.140625 8.6875 27.390625 
z
" id="DejaVuSans-85"/>
      <path d="M 9.8125 72.90625 
L 19.671875 72.90625 
L 19.671875 42.09375 
L 52.390625 72.90625 
L 65.09375 72.90625 
L 28.90625 38.921875 
L 67.671875 0 
L 54.6875 0 
L 19.671875 35.109375 
L 19.671875 0 
L 9.8125 0 
z
" id="DejaVuSans-75"/>
     </defs>
     <g transform="translate(89.14 631.466094)scale(0.15 -0.15)">
      <use xlink:href="#DejaVuSans-85"/>
      <use x="73.193359" xlink:href="#DejaVuSans-75"/>
     </g>
    </g>
    <g id="patch_72">
     <path d="M 47.14 653.483281 
L 77.14 653.483281 
L 77.14 642.983281 
L 47.14 642.983281 
z
" style="fill:#ff00ff;opacity:0.7;stroke:#ffffff;stroke-linejoin:miter;"/>
    </g>
    <g id="text_29">
     <!-- NL -->
     <defs>
      <path d="M 9.8125 72.90625 
L 23.09375 72.90625 
L 55.421875 11.921875 
L 55.421875 72.90625 
L 64.984375 72.90625 
L 64.984375 0 
L 51.703125 0 
L 19.390625 60.984375 
L 19.390625 0 
L 9.8125 0 
z
" id="DejaVuSans-78"/>
      <path d="M 9.8125 72.90625 
L 19.671875 72.90625 
L 19.671875 8.296875 
L 55.171875 8.296875 
L 55.171875 0 
L 9.8125 0 
z
" id="DejaVuSans-76"/>
     </defs>
     <g transform="translate(89.14 653.483281)scale(0.15 -0.15)">
      <use xlink:href="#DejaVuSans-78"/>
      <use x="74.804688" xlink:href="#DejaVuSans-76"/>
     </g>
    </g>
    <g id="patch_73">
     <path d="M 47.14 675.500469 
L 77.14 675.500469 
L 77.14 665.000469 
L 47.14 665.000469 
z
" style="fill:#ff0000;opacity:0.7;stroke:#ffffff;stroke-linejoin:miter;"/>
    </g>
    <g id="text_30">
     <!-- IT -->
     <defs>
      <path d="M 9.8125 72.90625 
L 19.671875 72.90625 
L 19.671875 0 
L 9.8125 0 
z
" id="DejaVuSans-73"/>
      <path d="M -0.296875 72.90625 
L 61.375 72.90625 
L 61.375 64.59375 
L 35.5 64.59375 
L 35.5 0 
L 25.59375 0 
L 25.59375 64.59375 
L -0.296875 64.59375 
z
" id="DejaVuSans-84"/>
     </defs>
     <g transform="translate(89.14 675.500469)scale(0.15 -0.15)">
      <use xlink:href="#DejaVuSans-73"/>
      <use x="29.492188" xlink:href="#DejaVuSans-84"/>
     </g>
    </g>
   </g>
  </g>
  <g id="axes_2">
   <g id="patch_74">
    <path d="M 388.568056 692.12 
L 701.28 692.12 
L 701.28 14.76 
L 388.568056 14.76 
z
" style="fill:#ffffff;"/>
   </g>
   <g id="patch_75">
    <path clip-path="url(#p6e39a044f8)" d="z
" style="fill:#800080;opacity:0.7;stroke:#ffffff;stroke-linejoin:miter;"/>
   </g>
   <g id="patch_76">
    <path clip-path="url(#p6e39a044f8)" d="M 388.568056 638.802306 
L 678.098207 638.802306 
L 678.098207 631.292772 
L 388.568056 631.292772 
z
" style="fill:#800080;opacity:0.7;stroke:#ffffff;stroke-linejoin:miter;"/>
   </g>
   <g id="patch_77">
    <path clip-path="url(#p6e39a044f8)" d="M 388.568056 608.764169 
L 680.170894 608.764169 
L 680.170894 601.254634 
L 388.568056 601.254634 
z
" style="fill:#800080;opacity:0.7;stroke:#ffffff;stroke-linejoin:miter;"/>
   </g>
   <g id="patch_78">
    <path clip-path="url(#p6e39a044f8)" d="M 388.568056 578.726031 
L 681.139942 578.726031 
L 681.139942 571.216497 
L 388.568056 571.216497 
z
" style="fill:#800080;opacity:0.7;stroke:#ffffff;stroke-linejoin:miter;"/>
   </g>
   <g id="patch_79">
    <path clip-path="url(#p6e39a044f8)" d="M 388.568056 548.687894 
L 677.909781 548.687894 
L 677.909781 541.178359 
L 388.568056 541.178359 
z
" style="fill:#800080;opacity:0.7;stroke:#ffffff;stroke-linejoin:miter;"/>
   </g>
   <g id="patch_80">
    <path clip-path="url(#p6e39a044f8)" d="M 388.568056 518.649756 
L 677.829027 518.649756 
L 677.829027 511.140222 
L 388.568056 511.140222 
z
" style="fill:#800080;opacity:0.7;stroke:#ffffff;stroke-linejoin:miter;"/>
   </g>
   <g id="patch_81">
    <path clip-path="url(#p6e39a044f8)" d="M 388.568056 488.611619 
L 678.394305 488.611619 
L 678.394305 481.102084 
L 388.568056 481.102084 
z
" style="fill:#800080;opacity:0.7;stroke:#ffffff;stroke-linejoin:miter;"/>
   </g>
   <g id="patch_82">
    <path clip-path="url(#p6e39a044f8)" d="M 388.568056 458.573481 
L 678.959583 458.573481 
L 678.959583 451.063947 
L 388.568056 451.063947 
z
" style="fill:#800080;opacity:0.7;stroke:#ffffff;stroke-linejoin:miter;"/>
   </g>
   <g id="patch_83">
    <path clip-path="url(#p6e39a044f8)" d="M 388.568056 428.535344 
L 679.2826 428.535344 
L 679.2826 421.025809 
L 388.568056 421.025809 
z
" style="fill:#800080;opacity:0.7;stroke:#ffffff;stroke-linejoin:miter;"/>
   </g>
   <g id="patch_84">
    <path clip-path="url(#p6e39a044f8)" d="M 388.568056 398.497206 
L 679.040337 398.497206 
L 679.040337 390.987672 
L 388.568056 390.987672 
z
" style="fill:#800080;opacity:0.7;stroke:#ffffff;stroke-linejoin:miter;"/>
   </g>
   <g id="patch_85">
    <path clip-path="url(#p6e39a044f8)" d="M 388.568056 368.459069 
L 678.394305 368.459069 
L 678.394305 360.949534 
L 388.568056 360.949534 
z
" style="fill:#800080;opacity:0.7;stroke:#ffffff;stroke-linejoin:miter;"/>
   </g>
   <g id="patch_86">
    <path clip-path="url(#p6e39a044f8)" d="M 388.568056 338.420931 
L 675.325652 338.420931 
L 675.325652 330.911397 
L 388.568056 330.911397 
z
" style="fill:#800080;opacity:0.7;stroke:#ffffff;stroke-linejoin:miter;"/>
   </g>
   <g id="patch_87">
    <path clip-path="url(#p6e39a044f8)" d="M 388.568056 308.382794 
L 674.760373 308.382794 
L 674.760373 300.873259 
L 388.568056 300.873259 
z
" style="fill:#800080;opacity:0.7;stroke:#ffffff;stroke-linejoin:miter;"/>
   </g>
   <g id="patch_88">
    <path clip-path="url(#p6e39a044f8)" d="M 388.568056 278.344656 
L 672.418506 278.344656 
L 672.418506 270.835122 
L 388.568056 270.835122 
z
" style="fill:#800080;opacity:0.7;stroke:#ffffff;stroke-linejoin:miter;"/>
   </g>
   <g id="patch_89">
    <path clip-path="url(#p6e39a044f8)" d="M 388.568056 248.306519 
L 675.164144 248.306519 
L 675.164144 240.796984 
L 388.568056 240.796984 
z
" style="fill:#800080;opacity:0.7;stroke:#ffffff;stroke-linejoin:miter;"/>
   </g>
   <g id="patch_90">
    <path clip-path="url(#p6e39a044f8)" d="M 388.568056 218.268381 
L 675.648668 218.268381 
L 675.648668 210.758847 
L 388.568056 210.758847 
z
" style="fill:#800080;opacity:0.7;stroke:#ffffff;stroke-linejoin:miter;"/>
   </g>
   <g id="patch_91">
    <path clip-path="url(#p6e39a044f8)" d="M 388.568056 188.230244 
L 677.263749 188.230244 
L 677.263749 180.72071 
L 388.568056 180.72071 
z
" style="fill:#800080;opacity:0.7;stroke:#ffffff;stroke-linejoin:miter;"/>
   </g>
   <g id="patch_92">
    <path clip-path="url(#p6e39a044f8)" d="M 388.568056 158.192106 
L 678.394305 158.192106 
L 678.394305 150.682572 
L 388.568056 150.682572 
z
" style="fill:#800080;opacity:0.7;stroke:#ffffff;stroke-linejoin:miter;"/>
   </g>
   <g id="patch_93">
    <path clip-path="url(#p6e39a044f8)" d="M 388.568056 128.153969 
L 678.475059 128.153969 
L 678.475059 120.644435 
L 388.568056 120.644435 
z
" style="fill:#800080;opacity:0.7;stroke:#ffffff;stroke-linejoin:miter;"/>
   </g>
   <g id="patch_94">
    <path clip-path="url(#p6e39a044f8)" d="M 388.568056 98.115831 
L 679.201846 98.115831 
L 679.201846 90.606297 
L 388.568056 90.606297 
z
" style="fill:#800080;opacity:0.7;stroke:#ffffff;stroke-linejoin:miter;"/>
   </g>
   <g id="patch_95">
    <path clip-path="url(#p6e39a044f8)" d="M 388.568056 68.077694 
L 678.313551 68.077694 
L 678.313551 60.56816 
L 388.568056 60.56816 
z
" style="fill:#800080;opacity:0.7;stroke:#ffffff;stroke-linejoin:miter;"/>
   </g>
   <g id="patch_96">
    <path clip-path="url(#p6e39a044f8)" d="M 388.568056 661.330909 
L 682.189745 661.330909 
L 682.189745 653.821375 
L 388.568056 653.821375 
z
" style="fill:#ff00ff;opacity:0.7;stroke:#ffffff;stroke-linejoin:miter;"/>
   </g>
   <g id="patch_97">
    <path clip-path="url(#p6e39a044f8)" d="M 388.568056 631.292772 
L 681.866729 631.292772 
L 681.866729 623.783237 
L 388.568056 623.783237 
z
" style="fill:#ff00ff;opacity:0.7;stroke:#ffffff;stroke-linejoin:miter;"/>
   </g>
   <g id="patch_98">
    <path clip-path="url(#p6e39a044f8)" d="M 388.568056 601.254634 
L 679.444108 601.254634 
L 679.444108 593.7451 
L 388.568056 593.7451 
z
" style="fill:#ff00ff;opacity:0.7;stroke:#ffffff;stroke-linejoin:miter;"/>
   </g>
   <g id="patch_99">
    <path clip-path="url(#p6e39a044f8)" d="M 388.568056 571.216497 
L 679.928632 571.216497 
L 679.928632 563.706962 
L 388.568056 563.706962 
z
" style="fill:#ff00ff;opacity:0.7;stroke:#ffffff;stroke-linejoin:miter;"/>
   </g>
   <g id="patch_100">
    <path clip-path="url(#p6e39a044f8)" d="M 388.568056 541.178359 
L 679.201846 541.178359 
L 679.201846 533.668825 
L 388.568056 533.668825 
z
" style="fill:#ff00ff;opacity:0.7;stroke:#ffffff;stroke-linejoin:miter;"/>
   </g>
   <g id="patch_101">
    <path clip-path="url(#p6e39a044f8)" d="M 388.568056 511.140222 
L 675.406406 511.140222 
L 675.406406 503.630687 
L 388.568056 503.630687 
z
" style="fill:#ff00ff;opacity:0.7;stroke:#ffffff;stroke-linejoin:miter;"/>
   </g>
   <g id="patch_102">
    <path clip-path="url(#p6e39a044f8)" d="M 388.568056 481.102084 
L 672.983784 481.102084 
L 672.983784 473.59255 
L 388.568056 473.59255 
z
" style="fill:#ff00ff;opacity:0.7;stroke:#ffffff;stroke-linejoin:miter;"/>
   </g>
   <g id="patch_103">
    <path clip-path="url(#p6e39a044f8)" d="M 388.568056 451.063947 
L 672.983784 451.063947 
L 672.983784 443.554412 
L 388.568056 443.554412 
z
" style="fill:#ff00ff;opacity:0.7;stroke:#ffffff;stroke-linejoin:miter;"/>
   </g>
   <g id="patch_104">
    <path clip-path="url(#p6e39a044f8)" d="M 388.568056 421.025809 
L 675.083389 421.025809 
L 675.083389 413.516275 
L 388.568056 413.516275 
z
" style="fill:#ff00ff;opacity:0.7;stroke:#ffffff;stroke-linejoin:miter;"/>
   </g>
   <g id="patch_105">
    <path clip-path="url(#p6e39a044f8)" d="M 388.568056 390.987672 
L 679.2826 390.987672 
L 679.2826 383.478137 
L 388.568056 383.478137 
z
" style="fill:#ff00ff;opacity:0.7;stroke:#ffffff;stroke-linejoin:miter;"/>
   </g>
   <g id="patch_106">
    <path clip-path="url(#p6e39a044f8)" d="M 388.568056 360.949534 
L 680.816926 360.949534 
L 680.816926 353.44 
L 388.568056 353.44 
z
" style="fill:#ff00ff;opacity:0.7;stroke:#ffffff;stroke-linejoin:miter;"/>
   </g>
   <g id="patch_107">
    <path clip-path="url(#p6e39a044f8)" d="M 388.568056 330.911397 
L 679.928632 330.911397 
L 679.928632 323.401863 
L 388.568056 323.401863 
z
" style="fill:#ff00ff;opacity:0.7;stroke:#ffffff;stroke-linejoin:miter;"/>
   </g>
   <g id="patch_108">
    <path clip-path="url(#p6e39a044f8)" d="M 388.568056 300.873259 
L 677.021486 300.873259 
L 677.021486 293.363725 
L 388.568056 293.363725 
z
" style="fill:#ff00ff;opacity:0.7;stroke:#ffffff;stroke-linejoin:miter;"/>
   </g>
   <g id="patch_109">
    <path clip-path="url(#p6e39a044f8)" d="M 388.568056 270.835122 
L 678.232797 270.835122 
L 678.232797 263.325588 
L 388.568056 263.325588 
z
" style="fill:#ff00ff;opacity:0.7;stroke:#ffffff;stroke-linejoin:miter;"/>
   </g>
   <g id="patch_110">
    <path clip-path="url(#p6e39a044f8)" d="M 388.568056 240.796984 
L 679.201846 240.796984 
L 679.201846 233.28745 
L 388.568056 233.28745 
z
" style="fill:#ff00ff;opacity:0.7;stroke:#ffffff;stroke-linejoin:miter;"/>
   </g>
   <g id="patch_111">
    <path clip-path="url(#p6e39a044f8)" d="M 388.568056 210.758847 
L 678.475059 210.758847 
L 678.475059 203.249313 
L 388.568056 203.249313 
z
" style="fill:#ff00ff;opacity:0.7;stroke:#ffffff;stroke-linejoin:miter;"/>
   </g>
   <g id="patch_112">
    <path clip-path="url(#p6e39a044f8)" d="M 388.568056 180.72071 
L 680.413156 180.72071 
L 680.413156 173.211175 
L 388.568056 173.211175 
z
" style="fill:#ff00ff;opacity:0.7;stroke:#ffffff;stroke-linejoin:miter;"/>
   </g>
   <g id="patch_113">
    <path clip-path="url(#p6e39a044f8)" d="M 388.568056 150.682572 
L 682.674269 150.682572 
L 682.674269 143.173038 
L 388.568056 143.173038 
z
" style="fill:#ff00ff;opacity:0.7;stroke:#ffffff;stroke-linejoin:miter;"/>
   </g>
   <g id="patch_114">
    <path clip-path="url(#p6e39a044f8)" d="M 388.568056 120.644435 
L 683.643318 120.644435 
L 683.643318 113.1349 
L 388.568056 113.1349 
z
" style="fill:#ff00ff;opacity:0.7;stroke:#ffffff;stroke-linejoin:miter;"/>
   </g>
   <g id="patch_115">
    <path clip-path="url(#p6e39a044f8)" d="M 388.568056 90.606297 
L 684.773874 90.606297 
L 684.773874 83.096763 
L 388.568056 83.096763 
z
" style="fill:#ff00ff;opacity:0.7;stroke:#ffffff;stroke-linejoin:miter;"/>
   </g>
   <g id="patch_116">
    <path clip-path="url(#p6e39a044f8)" d="M 388.568056 60.56816 
L 686.388955 60.56816 
L 686.388955 53.058625 
L 388.568056 53.058625 
z
" style="fill:#ff00ff;opacity:0.7;stroke:#ffffff;stroke-linejoin:miter;"/>
   </g>
   <g id="patch_117">
    <path clip-path="url(#p6e39a044f8)" d="M 388.568056 653.821375 
L 671.207196 653.821375 
L 671.207196 646.31184 
L 388.568056 646.31184 
z
" style="fill:#ff0000;opacity:0.7;stroke:#ffffff;stroke-linejoin:miter;"/>
   </g>
   <g id="patch_118">
    <path clip-path="url(#p6e39a044f8)" d="M 388.568056 623.783237 
L 672.822276 623.783237 
L 672.822276 616.273703 
L 388.568056 616.273703 
z
" style="fill:#ff0000;opacity:0.7;stroke:#ffffff;stroke-linejoin:miter;"/>
   </g>
   <g id="patch_119">
    <path clip-path="url(#p6e39a044f8)" d="M 388.568056 593.7451 
L 673.252965 593.7451 
L 673.252965 586.235565 
L 388.568056 586.235565 
z
" style="fill:#ff0000;opacity:0.7;stroke:#ffffff;stroke-linejoin:miter;"/>
   </g>
   <g id="patch_120">
    <path clip-path="url(#p6e39a044f8)" d="M 388.568056 563.706962 
L 673.145293 563.706962 
L 673.145293 556.197428 
L 388.568056 556.197428 
z
" style="fill:#ff0000;opacity:0.7;stroke:#ffffff;stroke-linejoin:miter;"/>
   </g>
   <g id="patch_121">
    <path clip-path="url(#p6e39a044f8)" d="M 388.568056 533.668825 
L 672.09549 533.668825 
L 672.09549 526.15929 
L 388.568056 526.15929 
z
" style="fill:#ff0000;opacity:0.7;stroke:#ffffff;stroke-linejoin:miter;"/>
   </g>
   <g id="patch_122">
    <path clip-path="url(#p6e39a044f8)" d="M 388.568056 503.630687 
L 669.915131 503.630687 
L 669.915131 496.121153 
L 388.568056 496.121153 
z
" style="fill:#ff0000;opacity:0.7;stroke:#ffffff;stroke-linejoin:miter;"/>
   </g>
   <g id="patch_123">
    <path clip-path="url(#p6e39a044f8)" d="M 388.568056 473.59255 
L 670.722671 473.59255 
L 670.722671 466.083016 
L 388.568056 466.083016 
z
" style="fill:#ff0000;opacity:0.7;stroke:#ffffff;stroke-linejoin:miter;"/>
   </g>
   <g id="patch_124">
    <path clip-path="url(#p6e39a044f8)" d="M 388.568056 443.554412 
L 667.331002 443.554412 
L 667.331002 436.044878 
L 388.568056 436.044878 
z
" style="fill:#ff0000;opacity:0.7;stroke:#ffffff;stroke-linejoin:miter;"/>
   </g>
   <g id="patch_125">
    <path clip-path="url(#p6e39a044f8)" d="M 388.568056 413.516275 
L 666.927231 413.516275 
L 666.927231 406.006741 
L 388.568056 406.006741 
z
" style="fill:#ff0000;opacity:0.7;stroke:#ffffff;stroke-linejoin:miter;"/>
   </g>
   <g id="patch_126">
    <path clip-path="url(#p6e39a044f8)" d="M 388.568056 383.478137 
L 667.977034 383.478137 
L 667.977034 375.968603 
L 388.568056 375.968603 
z
" style="fill:#ff0000;opacity:0.7;stroke:#ffffff;stroke-linejoin:miter;"/>
   </g>
   <g id="patch_127">
    <path clip-path="url(#p6e39a044f8)" d="M 388.568056 353.44 
L 668.219296 353.44 
L 668.219296 345.930466 
L 388.568056 345.930466 
z
" style="fill:#ff0000;opacity:0.7;stroke:#ffffff;stroke-linejoin:miter;"/>
   </g>
   <g id="patch_128">
    <path clip-path="url(#p6e39a044f8)" d="M 388.568056 323.401863 
L 663.2933 323.401863 
L 663.2933 315.892328 
L 388.568056 315.892328 
z
" style="fill:#ff0000;opacity:0.7;stroke:#ffffff;stroke-linejoin:miter;"/>
   </g>
   <g id="patch_129">
    <path clip-path="url(#p6e39a044f8)" d="M 388.568056 293.363725 
L 660.951433 293.363725 
L 660.951433 285.854191 
L 388.568056 285.854191 
z
" style="fill:#ff0000;opacity:0.7;stroke:#ffffff;stroke-linejoin:miter;"/>
   </g>
   <g id="patch_130">
    <path clip-path="url(#p6e39a044f8)" d="M 388.568056 263.325588 
L 663.212546 263.325588 
L 663.212546 255.816053 
L 388.568056 255.816053 
z
" style="fill:#ff0000;opacity:0.7;stroke:#ffffff;stroke-linejoin:miter;"/>
   </g>
   <g id="patch_131">
    <path clip-path="url(#p6e39a044f8)" d="M 388.568056 233.28745 
L 660.466908 233.28745 
L 660.466908 225.777916 
L 388.568056 225.777916 
z
" style="fill:#ff0000;opacity:0.7;stroke:#ffffff;stroke-linejoin:miter;"/>
   </g>
   <g id="patch_132">
    <path clip-path="url(#p6e39a044f8)" d="M 388.568056 203.249313 
L 657.882779 203.249313 
L 657.882779 195.739778 
L 388.568056 195.739778 
z
" style="fill:#ff0000;opacity:0.7;stroke:#ffffff;stroke-linejoin:miter;"/>
   </g>
   <g id="patch_133">
    <path clip-path="url(#p6e39a044f8)" d="M 388.568056 173.211175 
L 657.398255 173.211175 
L 657.398255 165.701641 
L 388.568056 165.701641 
z
" style="fill:#ff0000;opacity:0.7;stroke:#ffffff;stroke-linejoin:miter;"/>
   </g>
   <g id="patch_134">
    <path clip-path="url(#p6e39a044f8)" d="M 388.568056 143.173038 
L 661.435957 143.173038 
L 661.435957 135.663503 
L 388.568056 135.663503 
z
" style="fill:#ff0000;opacity:0.7;stroke:#ffffff;stroke-linejoin:miter;"/>
   </g>
   <g id="patch_135">
    <path clip-path="url(#p6e39a044f8)" d="M 388.568056 113.1349 
L 665.231397 113.1349 
L 665.231397 105.625366 
L 388.568056 105.625366 
z
" style="fill:#ff0000;opacity:0.7;stroke:#ffffff;stroke-linejoin:miter;"/>
   </g>
   <g id="patch_136">
    <path clip-path="url(#p6e39a044f8)" d="M 388.568056 83.096763 
L 665.312151 83.096763 
L 665.312151 75.587228 
L 388.568056 75.587228 
z
" style="fill:#ff0000;opacity:0.7;stroke:#ffffff;stroke-linejoin:miter;"/>
   </g>
   <g id="patch_137">
    <path clip-path="url(#p6e39a044f8)" d="M 388.568056 53.058625 
L 666.684969 53.058625 
L 666.684969 45.549091 
L 388.568056 45.549091 
z
" style="fill:#ff0000;opacity:0.7;stroke:#ffffff;stroke-linejoin:miter;"/>
   </g>
   <g id="matplotlib.axis_3">
    <g id="xtick_6">
     <g id="line2d_6">
      <g>
       <use style="stroke:#000000;stroke-width:0.8;" x="388.568056" xlink:href="#me9cc17853c" y="692.12"/>
      </g>
     </g>
     <g id="text_31">
      <!-- 0 -->
      <g transform="translate(384.114306 709.757812)scale(0.14 -0.14)">
       <use xlink:href="#DejaVuSans-48"/>
      </g>
     </g>
    </g>
    <g id="xtick_7">
     <g id="line2d_7">
      <g>
       <use style="stroke:#000000;stroke-width:0.8;" x="453.171288" xlink:href="#me9cc17853c" y="692.12"/>
      </g>
     </g>
     <g id="text_32">
      <!-- 20 -->
      <g transform="translate(444.263788 709.757812)scale(0.14 -0.14)">
       <use xlink:href="#DejaVuSans-50"/>
       <use x="63.623047" xlink:href="#DejaVuSans-48"/>
      </g>
     </g>
    </g>
    <g id="xtick_8">
     <g id="line2d_8">
      <g>
       <use style="stroke:#000000;stroke-width:0.8;" x="517.77452" xlink:href="#me9cc17853c" y="692.12"/>
      </g>
     </g>
     <g id="text_33">
      <!-- 40 -->
      <g transform="translate(508.86702 709.757812)scale(0.14 -0.14)">
       <use xlink:href="#DejaVuSans-52"/>
       <use x="63.623047" xlink:href="#DejaVuSans-48"/>
      </g>
     </g>
    </g>
    <g id="xtick_9">
     <g id="line2d_9">
      <g>
       <use style="stroke:#000000;stroke-width:0.8;" x="582.377752" xlink:href="#me9cc17853c" y="692.12"/>
      </g>
     </g>
     <g id="text_34">
      <!-- 60 -->
      <g transform="translate(573.470252 709.757812)scale(0.14 -0.14)">
       <use xlink:href="#DejaVuSans-54"/>
       <use x="63.623047" xlink:href="#DejaVuSans-48"/>
      </g>
     </g>
    </g>
    <g id="xtick_10">
     <g id="line2d_10">
      <g>
       <use style="stroke:#000000;stroke-width:0.8;" x="646.980984" xlink:href="#me9cc17853c" y="692.12"/>
      </g>
     </g>
     <g id="text_35">
      <!-- 80 -->
      <g transform="translate(638.073484 709.757812)scale(0.14 -0.14)">
       <use xlink:href="#DejaVuSans-56"/>
       <use x="63.623047" xlink:href="#DejaVuSans-48"/>
      </g>
     </g>
    </g>
   </g>
   <g id="matplotlib.axis_4"/>
   <g id="patch_138">
    <path d="M 388.568056 692.12 
L 388.568056 14.76 
" style="fill:none;stroke:#000000;stroke-linecap:square;stroke-linejoin:miter;stroke-width:0.8;"/>
   </g>
   <g id="patch_139">
    <path d="M 701.28 692.12 
L 701.28 14.76 
" style="fill:none;stroke:#000000;stroke-linecap:square;stroke-linejoin:miter;stroke-width:0.8;"/>
   </g>
   <g id="patch_140">
    <path d="M 388.568056 692.12 
L 701.28 692.12 
" style="fill:none;stroke:#000000;stroke-linecap:square;stroke-linejoin:miter;stroke-width:0.8;"/>
   </g>
   <g id="patch_141">
    <path d="M 388.568056 14.76 
L 701.28 14.76 
" style="fill:none;stroke:#000000;stroke-linecap:square;stroke-linejoin:miter;stroke-width:0.8;"/>
   </g>
   <g id="text_36">
    <!-- Employed male [%], ages: 25-64 -->
    <g transform="translate(421.934575 8.76)scale(0.15 -0.15)">
     <use xlink:href="#DejaVuSans-69"/>
     <use x="63.183594" xlink:href="#DejaVuSans-109"/>
     <use x="160.595703" xlink:href="#DejaVuSans-112"/>
     <use x="224.072266" xlink:href="#DejaVuSans-108"/>
     <use x="251.855469" xlink:href="#DejaVuSans-111"/>
     <use x="313.037109" xlink:href="#DejaVuSans-121"/>
     <use x="372.216797" xlink:href="#DejaVuSans-101"/>
     <use x="433.740234" xlink:href="#DejaVuSans-100"/>
     <use x="497.216797" xlink:href="#DejaVuSans-32"/>
     <use x="529.003906" xlink:href="#DejaVuSans-109"/>
     <use x="626.416016" xlink:href="#DejaVuSans-97"/>
     <use x="687.695312" xlink:href="#DejaVuSans-108"/>
     <use x="715.478516" xlink:href="#DejaVuSans-101"/>
     <use x="777.001953" xlink:href="#DejaVuSans-32"/>
     <use x="808.789062" xlink:href="#DejaVuSans-91"/>
     <use x="847.802734" xlink:href="#DejaVuSans-37"/>
     <use x="942.822266" xlink:href="#DejaVuSans-93"/>
     <use x="981.835938" xlink:href="#DejaVuSans-44"/>
     <use x="1013.623047" xlink:href="#DejaVuSans-32"/>
     <use x="1045.410156" xlink:href="#DejaVuSans-97"/>
     <use x="1106.689453" xlink:href="#DejaVuSans-103"/>
     <use x="1170.166016" xlink:href="#DejaVuSans-101"/>
     <use x="1231.689453" xlink:href="#DejaVuSans-115"/>
     <use x="1283.789062" xlink:href="#DejaVuSans-58"/>
     <use x="1317.480469" xlink:href="#DejaVuSans-32"/>
     <use x="1349.267578" xlink:href="#DejaVuSans-50"/>
     <use x="1412.890625" xlink:href="#DejaVuSans-53"/>
     <use x="1476.513672" xlink:href="#DejaVuSans-45"/>
     <use x="1512.597656" xlink:href="#DejaVuSans-54"/>
     <use x="1576.220703" xlink:href="#DejaVuSans-52"/>
    </g>
   </g>
  </g>
 </g>
 <defs>
  <clipPath id="pfdcaa4dd9c">
   <rect height="677.36" width="312.711944" x="33.64" y="14.76"/>
  </clipPath>
  <clipPath id="p6e39a044f8">
   <rect height="677.36" width="312.711944" x="388.568056" y="14.76"/>
  </clipPath>
 </defs>
</svg>
